<mxfile host="65bd71144e">
    <diagram id="Zqu8n6VPS7lp9Z7E7XRG" name="Pagina-1">
        <mxGraphModel dx="1657" dy="779" grid="1" gridSize="10" guides="1" tooltips="1" connect="1" arrows="1" fold="1" page="1" pageScale="1" pageWidth="827" pageHeight="1169" math="0" shadow="0">
            <root>
                <mxCell id="0"/>
                <mxCell id="1" parent="0"/>
                <mxCell id="9" style="edgeStyle=none;html=1;strokeWidth=4;" parent="1" edge="1">
                    <mxGeometry relative="1" as="geometry">
                        <mxPoint x="450" y="469.02" as="sourcePoint"/>
                        <mxPoint x="450" y="522" as="targetPoint"/>
                    </mxGeometry>
                </mxCell>
                <mxCell id="2" value="" style="rounded=1;whiteSpace=wrap;html=1;fillColor=#bac8d3;dashed=1;strokeWidth=5;strokeColor=#23445d;fontFamily=Titillium Web;fontSource=https%3A%2F%2Ffonts.googleapis.com%2Fcss%3Ffamily%3DTitillium%2BWeb;rotation=90;" parent="1" vertex="1">
                    <mxGeometry x="225.71" y="44.11" width="291.63" height="564.91" as="geometry"/>
                </mxCell>
                <mxCell id="3" value="" style="sketch=0;aspect=fixed;html=1;points=[];align=center;image;fontSize=12;image=img/lib/mscae/Docker.svg;" parent="1" vertex="1">
                    <mxGeometry x="110" y="420" width="50" height="41" as="geometry"/>
                </mxCell>
                <mxCell id="8" style="edgeStyle=none;html=1;strokeWidth=4;entryX=1.001;entryY=0.588;entryDx=0;entryDy=0;entryPerimeter=0;" parent="1" edge="1">
                    <mxGeometry relative="1" as="geometry">
                        <mxPoint x="283.06" y="521.63" as="sourcePoint"/>
                        <mxPoint x="283.0029200000001" y="472.67163000000005" as="targetPoint"/>
                    </mxGeometry>
                </mxCell>
                <mxCell id="12" style="edgeStyle=none;html=1;strokeWidth=4;" parent="1" source="5" target="13" edge="1">
                    <mxGeometry relative="1" as="geometry">
                        <mxPoint x="390" y="620" as="targetPoint"/>
                    </mxGeometry>
                </mxCell>
                <mxCell id="5" value="" style="rounded=1;whiteSpace=wrap;html=1;fillColor=#d5e8d4;dashed=1;strokeWidth=5;strokeColor=#82b366;fontFamily=Titillium Web;fontSource=https%3A%2F%2Ffonts.googleapis.com%2Fcss%3Ffamily%3DTitillium%2BWeb;rotation=90;" parent="1" vertex="1">
                    <mxGeometry x="346.53" y="410" width="50" height="273.26" as="geometry"/>
                </mxCell>
                <mxCell id="7" value="" style="shape=image;verticalLabelPosition=bottom;labelBackgroundColor=default;verticalAlign=top;aspect=fixed;imageAspect=0;image=data:image/png,iVBORw0KGgoAAAANSUhEUgAAA+gAAAFLCAYAAABFtKaNAAAAAXNSR0IArs4c6QAAAIRlWElmTU0AKgAAAAgABQESAAMAAAABAAEAAAEaAAUAAAABAAAASgEbAAUAAAABAAAAUgEoAAMAAAABAAIAAIdpAAQAAAABAAAAWgAAAAAAAABaAAAAAQAAAFoAAAABAAOgAQADAAAAAQABAACgAgAEAAAAAQAAA+igAwAEAAAAAQAAAUsAAAAAayZE1QAAAAlwSFlzAAAN1wAADdcBQiibeAAAAVlpVFh0WE1MOmNvbS5hZG9iZS54bXAAAAAAADx4OnhtcG1ldGEgeG1sbnM6eD0iYWRvYmU6bnM6bWV0YS8iIHg6eG1wdGs9IlhNUCBDb3JlIDYuMC4wIj4KICAgPHJkZjpSREYgeG1sbnM6cmRmPSJodHRwOi8vd3d3LnczLm9yZy8xOTk5LzAyLzIyLXJkZi1zeW50YXgtbnMjIj4KICAgICAgPHJkZjpEZXNjcmlwdGlvbiByZGY6YWJvdXQ9IiIKICAgICAgICAgICAgeG1sbnM6dGlmZj0iaHR0cDovL25zLmFkb2JlLmNvbS90aWZmLzEuMC8iPgogICAgICAgICA8dGlmZjpPcmllbnRhdGlvbj4xPC90aWZmOk9yaWVudGF0aW9uPgogICAgICA8L3JkZjpEZXNjcmlwdGlvbj4KICAgPC9yZGY6UkRGPgo8L3g6eG1wbWV0YT4KGV7hBwAAQABJREFUeAHt3Qt8HGd56P/3fWd1sxyHBMwlJJacpNxMEssmpeEWmfiWBHrhU5keSmlPy/8c2nMOp+RSCDfL9AKUW4Fy+FP+PTmUW7H+LaTQYNkOViAhQGJLdmJzc2LJCeViIBdLsiXtzHue592VkRNnY2l3Z2d3f9OKWNrdmXe+7+zM+8z7zPtaw1IZga19kdk0EOvKLhi8+KmxiX7PWHuVMf5ib8xSa0xudkPy77z87Yj8Piw/XzYt/p9H14w8ZPqNM5uNN1Z+qrXoNvpNoqvv/urKbhPZy7w3z5NtPl3K2l6tzbJeBBYuYI8b739qIvNdb1ruOLz2zvvCuuYcywtfdxU/Oad8Fww+/7zYtrxGtrZRfi6Sb/hZ8p1zVdw6q36swIyY/4dNzF2J8V9cfO7MwP4V+6fNnHP3Yz+S8b/MOcbO295zjvXmRXIef75z5hne2w75t1xuWNISkGMr7539hTX2h96674ytu0uv8VIN8l23hetuWmVhOyIw5/uxbOel5+fMzGVxbJ4rbbOn0d7hCMmmgLZ3zE+sNQdM7O8YvXJkNJRzzrFclXJr5KGLxB/du1Y+yeTtf5LfXiFl6ZH/PlV+IvkJiwQoeXmzxDB2n7TNbs51mM8ffNmwxjSmrq+nYQey8z9cvMutC/3SPK/PhuBcGnrLz/rhm6RhdL3rjJ7qE2/8tBzK8Sni7Uha563C7+SqPRn/SA70d4yu23NjKI5+UaoRpBcbCUt3rVjcOdP2+94kL5EvX6c0KKZlc3n59ykKWi4Qn0egTAH5NvjE5qwzLdKoOibfjW9GPvrsfet2PyxHbDYbvnPKtXxHz9vDOWGxW+Ll1lw4J8i5gSVlATndWjnf2ja5LyL8ybH4e1Ib146tH7lZftdzri71UzHFBtuKrStaJ5e0/p53/uXe2jOsl6PMmhnZk/rZl5QPhaptLjRyfSQHmlzdwzX1u0nU8k/hpmK1G9hV26k6XXHxHHz+jtVnxj5+rXy/L5MzQIdPzIx1tHfqtFYbv9ja3jHS3jHS3vF+UiKF2yYemvrskU37x+WMXp32zpyYo2uw50/k5sC7JIY5x0g7JSkRw1g5y+k1NZmIfybXnfcfevjXPjgbC5kDA362M7DxK606e1hoklRn3Y29Vjmge4d6o6E1Q3nd0WU7e9a6xLxPDuqVfioxSd7rHSb11V6yUzlr40mb6d61yJex1ZlkPP746IbhP5O/azNRG4yVa2AVGwfay+Ksv07W3C1bmZANxLIZKaN8JVkQyKyAl0QPm+jlQL4ci6Vj8IHIufdLkH54bi9JJopf/K517+ptNzMP/6tbkrtSvttGbtjJOUG+Z1a+b/r9ZqmFQDjv6oYlUA89AnK+fsvo+uH3Zu44KqVz4hhb+SQJNa6Tt66Q/tkJCczlGON8Xoqu+q9ZL41VbUpL+9osku1pj9jHxzaMfLOujrHqQ1VvC78KzpfFSXKdnHPPlW/8uNyzkmsI34/qwbPmygjMtndCr3WnHLuHTOLeP7Zx948rfg6ZE2t0b+/5f93i6L/64/OMYXISw8iNb2nn7JXv1/WHNozsUIfeXb25od6huKKxTGWA62ItNBIXUk1zUiLPveWSZ+YS9zdyeL4u9IZPJRqYa1CuP6e3yE0qabYndkkulxyd+dDoupFr5IJeuTtlxS9g9xclbWWR3yK9LOdIK3Vcypk7vQLyLgSyIyCN3lhu2i6SYORIWy7a/IM1u38eAl65MmSglHpODeXo2r7qK9GS6OrkkfyM/E2/a5xvM1BBc4qgjyQ5aZDY/NH4jYc3DH+0LtLziufzC2++sG0mt+Sdcrg9RwKPR+TOj9xwkG8FS2YE5EQQS3dYi1RZZOPkvWNX7R2u6LU9M3uaoYIUvx/P2rX6KVP5eIv4L5WekElpY51I0c1QaSkKAiUF5ByiMcVi+fmRs9HmYuagnO4r1N4pxhrd21f9nVsS/U//SD4fbi/O7xE87WxMXJvLhV73GfMZF/m3H7pieCzs3JyYqeTO8uJJAqcfRJ70sSb9RXst5hxo3TtW/Xkudne7RdHr/Izc8Zry0hsdGuLzc5UvghzcUfJwPrFt0ZuWb+/5TfnyJWFblaRe5P+zBOfnyZdvoljOSq6ddSGQioA2tLTBJbHI06dnkj8JG5UDOhPL1r7w3ZeL3V9EZ7jZ4FxS8wnOM1E/JxcikiaOl/Q8vbf6d93bV64M6Xmh7/PkN2bqty2FY2km6vx9SSp5XiE41+sOwXmm6kkKI6cleZhNGthWzlgt9vWabh2u7RpEslRHoBi4TE8nr5cUhqcTnFeHmbWmIyAnipzEB5L9YZYlJv7PFd2qxjMSa3Rtv+R3bIf9n8kjsT6Qq3+bXwwjN7pDOSUG0lgoWuxe62OzV2Ok0OOv43PptjSGYjltAbBOj8pqqoYcXIk24CQN5PLuHT3fcYvch+Tye1Y8EWuauxyf8uzZwpfCHTH5dsi1uz+srzDonKy3jEW/EHLBkobBRYlzL5Tg5ih3ksvw5KOZENBjWG6Jjcu3ZfWywVWrpVASp9T45K+NbvnO6iCRUpjr/WQYi7Gcc0ImrBu6EHpz1Ju8PJok10InvdGybMnwHusxJteh5f/e0yV9/71yzJMJleHq0qLJbRO5AW+npK6ekSTJlaG4xZssGS96/RWveA1Y9jW5Jli/Ssb+GKe9U3/VSIlPFtDgV84k44mxv3HBrhc8X9v0FQh2C2NnyclJTlGbJbqRRQKQsjoTQgxk43GJiSJ7psZI3S/q2d2185I14ea3xlAaS5W1DS1icywE6E9Uz3rXR45afda8a9vqZ3QNrvoHOfCG5HmLS0NgHssloNBr/kRrOp3XI3ke0tuc6Vm2vefl4QPFHrnT+XCp9yQ+ebGm2snd5PANLPVeXkOgHgT05CUPezpnZbDDwlLbY1vGpNBi5I373agzekoSy9PBEvUVisb/ZlVAzt+RDNSpxbvywltWX6ABcAUaP9XaXSmuHPctMlq794vlgA8Fr9bGWG9lBKQ9LeNO+CnJeLis+8bu9nCM0UitDO7JawnXAJdPXiI3cGUyAxYEGkNA4uhE2/DxTDzb3ilvx4qxxfLtK9fKI7qXSOyhIXpFOhRCTCSxkTyTHkustNK56GvSqfkpjaFMYdwuX/EM4fI0Mvlpzl+PVy3a83xSOnvPn1qX7JW01f9HRmX3MojCbDp7aDA93mrm+3dtcNkO6fT2plc/27v0SDnrD70tOsqvrPDZRsZjDA2F+RaK9yOQQQF5XEMOZzstPaDPOvebl3WEu8q1bPTeOhTuQVvrLs8gF0V6fAE9jmLbbtvzM/5l4W2X92bz2qiPPmkvujHy3LmZkbzCcq4Pjy/CKxUWkHOVtfJsp32KOefJ3WHl/dRdpZH1GqDXAuk1eZZ4T4drRIU3wuoQqIVAoe2eTMuNvmeHNr3eSC6nvTMbWzh3ucYccj0J7ZcK7ptenaTTUdLe5cynjwLbKLlbxub5b2EbpL0/IXU2GyFPWOwqv2FOOnvX4MoXSUr7HXJw/S+5y7Q0pG4UvhQVudN0yj2Rr4mMVX2+vjZUbPSf8n1P9Ef5xukys7R9iQQx8uybld4Wqrygwv/Wv4A0wyRgkf/tNMcmzw77Uzzma7Bv4WaY3tSTXv3zdTo1ucnGl60GFbGgTepEfjKThjwrfIF+vndBK6n6h0Iw3j3U2yZbeqr8ovlbBOhVZ6/MBqSmdDDYFukIkzm4ZdlcmfWylqLA7Ln/F5NnS3unU68NmmOFDwKNISDNCWnDyxF95oPSpg/7NHvML2QHi7GFdDdeoN+U6jVWimnv8iiwTMn25KjT/b3GVMu3rXrpbNp7eIS4nJsNC9n/OvhM9eqkDnb+MUUspLNbTcHQEUDlIPq4jdzttt39hqZqSKNbpujQZ0Gqt8j6w2VFbmedEbayufyU9Hh6qkO+x9R19aqNNddKQB7ZkChdOhJz7bUqQthu8UK5whyIJDCXaeDkDzQNa1ol89m4VJd0UGhz3i3Wzw3N58Npvbd4jLW1zMio4InMkVv+tSGtorMd6Z7ScFFH2o+TwrlqoI8zRBUODBvl2vWaEL4fVs7GLAg0kIBcq1zHtOsoe5eKsYXc412sI69Xu8WisZP0pSch7V1iKp8zX+/esfIT3bsufXpxumrS3h9VqQRtCqKNM+01LwzK5uWZjNdP5/3dMv3OG8KBK+ns8g7tMU/NS64rFb14p1bwRx1g/IpAGgKtM8Xvy5Yah8UrZG9D6n0ae802Ki9QPI6OLM1swz7O6VTnld9z1piSgMy4ltKWmnIzbZpfwoJAIwpoT3eFzx46gmWKvQk6aHWkjwhLJ4Z3nbn/Ymby+yRT+c9CdZH2ftJRW9Xe4JO2lNVfNDC3QzKY01C+e3D1C+U+9/vsouilZlomNJCRCCUlTafiqV46e1ZdKBcCCCDQrAJ9Gd7xX0rZ9MpNkJ7hSqJoCCCAQIUFtKetMc77GlN5jbGcPDrs2qKPScbyH8gAK9cdXj9wu6pp2nuxZ11/bcqleTtWNZ1d7xxJOnv3rpVP6h5c9SHjkm/ZRe6lMqLvr9LZw92lpjw22GkEEJivwH75gNzlZkEAAQQQQAABBBA4hYDEVtJ1n9NHh5MJGe1d0t6dc7fpo8Xnbrvs7BCca/xVePT4FCto/D81X4CuFT6bzi6Jgsu2r3qtmbH73Bnuz/XOlD8mqReFqQaaz6bxj3f2EIHqCBTTzvYvXSpTlfpj4dLTGHe6q+PFWhFAAAEEEECg2QU01iqkvcuz8K4zekPOHb+na0fPH0u05sOjx77YodpkUs0VhIZ0dqlw7TXfvnKlHAA7og77adtizwujsxee7COdvcm+BOwuAhUQ0FFWQkaODFD0I5nxQR/rIkSvACyrQAABBBBAAIGGFoi0zRTraO85+4yoI/pH6U0fOm/nykuNHdBxwHzoXG1ogpN3rjkC9Dnp7OfvWH3m8h2r3iet57ui9mitPybjCs4UR2fXBjYLAgggsBCBod5wc8/b5E4dTlITchayGj6DAAIIIIAAAgg0lYDEYCfS3uVRY9fhLo8S+53uwZ4PL/vKRWdp56q0qpom7b2xA3StyDnp7F07Vr4m8cle2+muk1ei5Fgs6exhjr7Gdmiqbzg7i0CNBHqHwtPnzkT/Gh+VZ6pk7jcpCUF6jaqDzSKAAAIIIIBA3QloTCYxWnjk2Lgzoje61tw93dtX/ZHEbk2T9t64gemcdPblO1ddLBU76Nqjz0o6e1dIZy/MIUs6e919bykwAhkVsDI8nDxCdd+63XfLXeDPyrNUGp3rmBYsCCCAAAIIIIAAAqcvcGK0d0l7P0d61G+UtPdblg2uWt0Mae+NF6BLA9n0y4+kQpzz5dWLunf0vDtJ/B63yK0P6ezTxXT2FCf+O/1jkXcigEBdC2wplN7mzTuT8fghmfKYXvS6rlAKjwACCCCAAAI1EvhV2rtkPUuQ/nJn/V3Lt/V84Nk3PfuMkPauMd/WxpsOu3EC9Nl0du3F6jdJ145Vr2ptS0akF+stUruRDuMf0tmtPh3KggACCFRBQM49On/noauHx6T7fLNrd/SiV4GZVSKAAAIIIIBA0who7BYlk4W0d3tGdM1Ux6J98nz672nMZzZJtqJmTmss2CBLYwSrc9LZuwdXP0dSIP7Ntdp/sa3u106ks0uQ3iB1xm4ggECGBYbWDIW09tENwx+RG4PfkiBde9FJdc9wnVE0BBBAAAEEEMi4QCGWK4z23mK7bYf7vMR8N8sA4BeF3vQGGu29vgN0TWfXH0lnP/ebl3VIJW0xVnrNF0Wv9MclsX0qSXREQDncGuaOSsa/OhQPAQR0YDidOUIW78w1ch7Sf4YpRPQfLAgggAACCCCAAAILEiikvcsjy/64jyXmuzL2yR6JAf/maYMXd55Ie9f4sI6X+iz83HR2SWnv3rnyt3Pjx0fc4uidEoq3xZNxXv7rwk8dVw5FRwCBOhXYJPN2+r5obO3wHT4xH5Vzk/GeXvQ6rU2KjQACCCCAAAJZEgiPLPvIS8yns+ZIO+uGDpfbJ1Npbwpp7/rIcx2nvddfgD4nnf38nZc8S54/+JJtib4o6ezPmk1nL/aaZ+kwoiwIINB0AgOh69y2+nfKtGsPuJYwYFz4W9NRsMMIIIAAAggggECFBWS2HH323GsMaFvM+abNfmH59pVfWbbtkhX1nPZePwH67Ch9ks6++hOrW5Zv73lHkri9Mgjcb5HOXuGjndUhgED5AsVnoUbXjDwkT9m8xeTCkzbMi16+LGtAAAEEEEAAAQRmBQpp71OFtHe7KHe1c264a7DnLy+8+cK2EKjPPhY9+4mM/zf7AfpsOntxlD7BvvLny/0e2xm9S5LY20lnz/gRRvEQaGYBuaEoqVZubMOez/pjyc3yrFQkEXq+mUnYdwQQQAABBBBAoOICxbT3YmzYEi2O3p7PnTHSvW3lb8ljz0n4qZO092wH6PIMp2B6vfPR/dWV3TKn+T+7Nneza7PPjyfkOfPEeNLZK354s0IEEKikwObCypK8uT6ZjKesCwNX0pNeSWPWhQACCCCAAAIIiECIDTXtXWJFeQT6ObYj+pIMIvcv529f+Wv1kvaezQA9pLNrcD4Q65zC3dt63iyP/++T3qdX+2kdnd3HxcA85IxyNCKAAAKZFSgOVHL4quEDUsa/kfOY3HVkwLjM1hcFQwABBBBAAIF6FyimvUvcKDN7ySPRr5Iu9L3Ld/S8fcXWFa1ZT3vPVoB+Ujr7QNy9Y9WG0emHd7sl0XvkdsgZodfc6LD5njnN6/1rQ/kRaCaB3qEwD3rnQ9PvkYFM9ksmkEz/aJkbvZmOAfYVAQQQQAABBNIVKM7qFWJIZzvkEem/nHhS68jywVWvDCnvGR3tPTsBus4bXExnX35LT5eks39WxjzeZtvdxWF09sSTzp7uIc3WEECgUgJ6bpNHdvZv2j9tE3udSTTDXU9pLAgggAACCCCAAALVFAiZ1xJLhtHeW91zZbT3f+vevmrrhbesvuBE2rvGohlZah+gz6az67zBsnRt77lWEtg1nf01fkZG4yOdPSOHCsVAAIGyBOSRHSMn/9GNe7YlM/7Tkm7lJExnwLiyUPkwAggggAACCCBwWgK/SnuXR6Zdp+vLx8k+6RR+i/H9zmgsqkG6xqY1XiTNsmaLlQnko3DXwgyYrm2XrDHO/W3UGb0gOZ6Y8GC/zm2nT2uyIIAAAo0gcGAgnNDiKLnBTpirbWTPNrHXudFrfjFoBF72AQEEEEAAAQQQKCkQRnuXwYB0EDlnF7kO9+7uHTe92u3suf6+tQM7w2d1tHd9PFEzIGuw1KZRWEghCKOzd3199TO6dvT8o2uNvuba3Qu8js4ek85eg2OBTSKAQLUFZLpIHfjygSv2/kiG3HinnPP0HmRNTv7V3lXWjwACCCCAAAIIZFVgNu1dY0/b5lb6yO7o2r7y0xcMXnperdPe0w3QH5XOvmyw53/Y4/E90aLoj33eexllL5aWqvbq82xmVo9myoUAAmUJDK0pDBg3tn7Px+KJ5Da5d6vPPDFgXFmqfBgBBBBAAAEEEJi3gNXYUx+plkerfdSZe23s8vvkketrQqp7jdLe0wrQNZ09JzuaaH7/8sGel3VvX/nt3OLoIzZyZxdHZ9egPDMP58+7evkAAgggcHoCPjzjJO91SXytP6YZ7uHcR0/66fnxLgQQQAABBBBAoIICYYYwWxzt/UnyyPUHul+06q6uwVUvD8+mawyrsWxKncjVD9DnpLN377r06XJH4pM+Z2+17dGvJ+NxLPcrkpBiUEFiVoUAAghkWkDvyMqJ/tDGvd8x1n/ILWZu9EzXF4VDAAEEEEAAgYYXCDGpPGodnk9vsz2uxdwig8h96sKbX3huYdw0eSyxENtW1aJ6AbrOaS7TCoW7DrILXTtX/5mfyd8dLY5er8+Yazq7vEN7zKtXhqrSsXIEEECgDIHi3Oi5mbZ+uVk55lpkYkkvd2hZEEAAAQQQQAABBGolUBztXbqR5RFsmVnsdfnc9L7uwZ43hgKlkPZeneBYUwB01DuZVqj75lW/IXcevh512I+5yD4lzGleeMKcdPZaHXZsFwEEai+g50g5Vx686tuPyJTobzaRnBitPgrFggACCCCAAAIIIFBbgTlp75E9S7IdP9y9veeOZV+95CWzae+9VUp7r2yArl3+2nO+Zij/zJ2//mRJZ/+oafF32Hb30pPS2fU9LAgggECzC8i5UgchGd2w5wuSVfRlJwPGSYTO3OjNflyw/wgggAACCCCQCYFi2nsSRntvd7/hWqJvdO9Y+YnlO5//NBn4V9tsFU97r0yAPjedXXqFugZ7/qQlmdF09v8uRTYyCBLp7Jk4xCgEAghkTmBzoUTOJdclk/ExmZNTByGhJz1zFUWBEEAAAQQQQKBJBZw0zHLhEW15Utt15v6LT1r2SY/6G4JHhdPeyw/Q56Szn79z5aVS0CEZ+e7/szn7jGI6uzY0SWdv0qOZ3UYAgScQsIWRQe9bu/cHcq/zr1yH0+icadeegI2XEUAAAQQQQACBlAVCTKsxrsS6T5Xn0z8use/tXTt7LptNey+O9l5WsRYeoM9JZz9324qzpXAfThL7HdvhLpdeIH2ovjA6O+nsZVUQH0YAgSYQKA4YN9ay5G/lcaB9rs1JL7olSG+CqmcXEUAAAQQQQKCOBCS21bR3jXU15pVHuV8kv39TYuGPX/j1nqVhtHeNf8sY7X3+AbpuUHvNtStf0tm7t6/6o1zUuk8enA8j24V09kKP+fzXXUd1Q1ERQACBignogHF6IpdnmSSH6lqTaOKR5xxaMWBWhAACCCCAAAIIVFRA22lRSHuXOXgkFn5D/ri5e/n2la/XGDnEyhozL6Czen4NwNl0dmlELt/Wc4kE54N2kbvRRvaZIZ298Nwk6ewVrXtWhgACTSFQfH7pvo3DO/1McqPrjHRIdwaMa4rKZycRQAABBBBAoE4FIg3Ii2nvT7OLcp/s3rHqa8sGV60OvekarGsMPY/l9AL0rfIMuYw0rBt59k0vPqN7+8r3emd3y4jD6/3cdHbJyZzHtnkrAggggMBcgQMD2nVuzEzLW+OJ+OcuFwaMY270uUb8GwEEEEAAAQQQyJLAo9LeXbtd45y/s3tw1YeWfeWis+ab9l46QD+Rzi4DFvWbRHLr/9NUx6Sks+f+wlgfJROxPiOpPeal15MlQMqCAAIIZFVAzrN6l3X06jt/4px9m20Np9ZC0J7VMlMuBBBAAAEEEEAAARXQhluU6AxmEke7M9yf25bcPsk8f9180t4fP7Cek85+/o7VF3UP9nxVHoL/nG2x3SGd3YeMetLZORgRQACBSgronJpyUj+0ds8/yOAjt8qo7nqeZcC4ShqzLgQQQAABBBBAoHoC2nYLae+u1Z5rO92nlm/v2dm14wU9p5P2/tgA3UvkX0xnX7FrxWIJzN8d+2SPPA+50R/3sZ8ujs5OOnv1qpQ1I4BAcwsM9IVzc+LttXIXNpG7ruFE39wo7D0CCCCAAAIIIFA3AoXR3mdktHfpUZeZzq6wPr5LAvUPSOf3mSFQ15hbY+9HLSf/wcsowjonr6azD6569cRM2153RvQWWXuukM7u9fWTP/OoFfIrAggggECZAjpgnGQxHd6wZ7f39oNyg1TO3/Sil6nKxxFAAAEEEEAAgbQFNHYupL1LCrxdHF2T+GRf17aVr9GYO8TejxpELlcsoY4vZ40diLsHVz/H2OQDtt1epVP9hBHp9DnzQg9O2jvE9hBAAIHmFCjOjb64dWrLxETbq1yLPV8zmLhJ2pyHA3uNAAIIIIAAAnUtMJv2HkubbpnNuc/K+G6/b3PRNYfWDH0/9KRrRH5int1+Dc5N0jXY88cSnO91i6KrQjr7FOnsdX0YUHgEEKhfgeK0HPvX7B+Xs/X1cs+1fveFkiOAAAIIIIAAAggU0t6lw8VL2nuIufPx3uLc6UkIz8XIma2S1i7d613be66JOqN/lEZgazwZy9y7pLNzDCGAAAI1FSgMGOfG1u35Vz8Vf9EtjpwE68yNXtNKYeMIIIAAAggggEAZAoVHxqMQczvbZjvD3Olvkg5zr7G5M/KsY/e2VRtdq/uAjBhsJBM+ln6a2dT3MrbMRxFAAAEEKiWQT9xfyIl83LowN7qmQLEggAACCCCAAAII1KlAiLllNHYZ683ITGkf1JhcY3O3YuuKVhP5D0jErotE6NJzzoIAAgggkA0BefyoVwYPeWDjnoPW27+Uadc0A4pp17JRO5QCAQQQQAABBBBYuEChN10idFmF8x/U2NyNn9X+u649ep4/LhOq62BwLAgggAACmRIYKg4YN7ruN9+fTCTDrt1plhNBeqZqicIggAACCCCAAAILEog0FpdOmOeOn9XyuzLse/KqELEXetAXtEY+hAACCCBQRYHiM0nG9sso7u4akw8Z7i48q1TFzbJqBBBAAAEEEEAAgZQEdAg5b3/HWW8u9VOJbpX5zVOyZzMIIIDAvAV0bnQZOGR03V1DyUzySRkwznqZCXPe6+EDCCCAAAIIIIAAAtkSkFR3jcklRL9Ug/JnyEDvWkD60LNVTZQGAQQQOFngwEA4Wbd02Lcl4/FPXS4MGBfusJ78Rn5DAAEEEEAAAQQQqCMBW4zJn6EBesvsnGt1tAMUFQEEEGg+AZkS08iAcQdfNnzEW/NW2xoSn0LQ3nwY7DECCCCAAAIIINBAAoUWXaF110C7xa4ggAACjS1QmBvdjq0b/t9+Mr7FLYoiuclKqntj1zp7hwACCCCAAAJNIsBz501S0ewmAgg0kMBAX7Hr3F8nQXpeRhDRGTjoSW+gKmZXEEAAAQQQQKA5BQjQm7Pe2WsEEKhnAR0wTlLdR9ePjEhU/j7XqZ3o9KLXc5VSdgQQQAABBBBAQAUI0DkOEEAAgXoUKM6NPj3l/koGjPuha5W50b08o86CAAIIIIAAAgggULcCBOh1W3UUHAEEmlpA50aXXvT/eOXuSZP465mHo6mPBnYeAQQQQAABBBpEgAC9QSqS3UAAgSYUKAwY50Y3jtzkp/xWmRvdSap7vgkl2GUEEEAAAQQQQKAhBAjQG6Ia2QkEEGh6gZbkzcl4ctRGYW50Boxr+gMCAAQQQAABBBCoRwEC9HqsNcqMAAIIzApYk/TqgHFrRka99Vtcu9Nsd6Zdm/XhvwgggAACCCCAQB0JEKDXUWVRVAQQQOBUAkPFAePG1g9/IJ6I7zLtMmAcQfqpqPgbAggggAACCCCQaQEC9ExXD4VDAAEETkNAB4zb2qdzoRvn7DV+OmS4R9KVTqr7afDxFgQQQAABBBBAICsCBOhZqQnKgQACCJQjoHOjS5B+aO2ebxjvPy4Dxsl/SHUvh5TPIoAAAggggAACaQsQoKctzvYQQACBagkcGAg95vl4+u0yN/p/uFwYMI650avlzXoRQAABBBBAAIEKCxCgVxiU1SGAAAI1E+g3ic6N/sDG/b+01txgW2S4OEOae83qgw0jgAACCCCAAALzFCBAnycYb0cAAQQyLVCYG90eWjf8T8kxv90tiiIJ05kbPdOVRuEQQAABBBBAAIGCAAE6RwICCCDQaAIDfeHcHnl3bXIsnvHW6KjuDBjXaPXM/iCAAAIIIIBAwwkQoDdclbJDCCDQ9AI6YJykut+74a57bGLe6zplwDimXWv6wwIABBBAAAEEEMi+AAF69uuIEiKAAALzFyjOje5bz/xrGTDue65V5kb38ow6CwIIIIAAAggggEBmBQjQM1s1FAwBBBAoQ0DnQJde9NE1Q8d94q8LawpjxpWxTj6KAAIIIIAAAgggUFUBAvSq8rJyBBBAoIYCOmDcVhONbRz5dz+dfF5S3Z2kujNgXA2rhE0jgAACCCCAAAKlBAjQS+nwGgIIIFDvAgcKg8NFfubNyWT8kI3C3OgMGFfv9Ur5EUAAAQQQQKAhBQjQG7Ja2SkEEECgKCBzo/eGAePuud943+/aHQPGcXAggAACCCCAAAIZFSBAz2jFUCwEEECgUgJDa4ZiXdfo+pEPJxPxtyRI12nXwt8qtQ3WgwACCCCAAAIIIFC+AAF6+YasAQEEEMi6gDdb+yItpHfmGj8VBnPX30l1z3rNUT4EEEAAAQQQaCoBAvSmqm52FgEEmlagODf62NrhOyQq/6hbzNzoTXsssOMIIIAAAgggkFkBAvTMVg0FQwABBCosMDs3+lR+c3w0fsC1hAHjmBu9wsysDgEEEEAAAQQQWKgAAfpC5fgcAgggUG8CxbnRD7/i7geNc2+2uTAxOmnu9VaPlBcBBBBAAAEEGlaAAL1hq5YdQwABBE4hoHOj9xs3tm7355LJ5KtuURRJhM7c6Keg4k8IIIAAAggggEDaAgToaYuzPQQQQKDWAs8zha5zZ6+VIP24dUZHdacnvdb1wvYRQAABBBBAoOkFCNCb/hAAAAEEmk5gk4l1bvSxdXu+K3H5u6UXnbnRm+4gYIcRQAABBBBAIIsCBOhZrBXKhAACCFRZYKg4YFznQ9PvScbj/a5N50a3zI1eZXdWjwACCCCAAAIIlBIgQC+lw2sIIIBAowrogHG+L9q/af+0sfZak2iGu8ySzoIAAggggAACCCBQMwEaYzWjZ8MIIIBAjQXsQGy29kWj6/YMJjPJZ1xnZBkwrsZ1wuYRQAABBBBAoKkFCNCbuvrZeQQaQ2A60bhSls0MdDbvGj0wEOziyL8lmYh/aaNmnRu9cAgFv4F5K/IBBBDIgMDUlBYiyUBJKAIC9SIw59pXL0VugnI6qRaeOcxaRcv4yj7hWdCsVQvlyZqABOXWWO994pyZzFrp6qY8/SbRAeMeuGLvjyTn/Z2uXe7byj/qpvyVKqiVE6/1hevh0iNhlPtKrZr1IIBAOgJ6LfDeJnptaMKzWDrIbKVhBORSH8sjbg2zP42yI1IjeWetPWKiUDnN1yDLYE1KJXhTyGv4RSjeQB9ZDhmsJ4qUBQHpJZFvi7P+4Zbk4V+GEnGdWVDFDK0ZCoHp2PqRj/mJ+Ha7yEWyoua6easn38SG46h3QYp8CAEEaiZQPPfrtUCvCYWWFD3pNasPNpxtgYFipGHkmhfuyXM7KyMV5jUml+bIEScDA4241nBm40yWkdrRmvHW7Nfi9NKTk5VaoRwZE5Duczln2TZj3HcPXnVwyvSHC458e1gWIOD1WXT9nPfxtf5YuBzo703hKVdA54/HxlmzTw2Gjixtiv3WfWVBoEEENO/HhmuBd9/Ta0PhGtEge8duIFBBgd6lvSHwky/NPRVcLasqXyApxuTDTpKAbtJWicaE5a+XNZQlINUgmSa5eCLOy1jK23RdQ7cOceOkLFQ+3KgC8nXR7JLpJG++3qj7mOp+bZIB4yTVfXTDvm9LqveH3OKmmRvdy3P3zs/4n8bT+W8E874BzrupHnxsDIEKCGyRFq0sSWxulX9MF68RFVgxq0CgsQRmY4vER4PxeJyX70uOh0JqX8chFpeYXJYvS3qo+7wMDPQj1yIDA3lG1qhx9eRlFGW9VfKlw2uHD4QeQXk+tMZlYvMIZE5ATmJ56SFZLP2e3zh8lXxX9Gl0vivl11NxbvTcTFu/zI1+OFwXGn9u9Lyk9Ot598bDr7j7wZBJEO5Zl8/JGhBAIEUBvQbItUCvCdIzeJteIwrXihTLwKYQqAcB/a5I1uH9G+66R8LBfwuxR2hX1UPhG7SMEoNrm0tumDygsbm7b93uhyVR9AbbKg2UQqOEnvTa1H0svTgt0iiekImO3hqKsLk2BWGrCGRXQMaEk4uInKqWyEXlh085Fv2f7Ja1Dkum1wDpRT941bcfkcef3lgYn0QeuDENeqPQmhnb7lqSo8l9ubj13aHG6D2vwwOXIiNwssBTzo5u1GuEjBW3pBCkF2f6OPlt/IZA8woUYwwbx2+VjtpJ62yLYDTX2DPZqX3tZvIai8vgcDdobO70DsqhjcOfloGBPuiW5ArPIHIXJc0q00qZsTlbtE/+4L71Iz80Xp4HtQ3aKE5Ttym2pTFr4/7IYx86iVr4kd3UibqfJI8M70+m4/fsfuXuST2HFW8uNkVtV30n1wzlw9zoG0du8lO+352R00cJdMYPyVpomEV2R867ba7FH08mY+NfHW5K6HP4hRvVDbOj7AgCTSWg31+5Jux+gVwbWozedNsfrhmFa0fhWhLaVo17zZTeNj2/sSBQWkC/B3LNO3Tlvu/7xLxOR/EJsYjEJPJBjqHSehV7dbZtpTG4xOIfOLR+z2f0HJYL8wb3G3No/fC1Xdt7JqR7/R0uZ3PJsUQrR/+HSqpYNfxqRXJnV3ul9H8jSS2RHpz4EWkCv25s/d6bCimW8jwoCwKPKyATycj/Sd+mk29oiwxeoEFUQy7S1NBdLQRO3j4oqT83deWW/OvQegkkNTjXVC2WygpskmewxX3U7tnSvX3VMbml+96o3eU0lJUllpOXXM/rbymcd+V/IznvLtLzbn7MOd83unbkrnDe1efwWRBAoL4Fium7o2tGHpIpJN81ln/kVYlP1smUnGdJm8vKBSXWy0p97+Tjl17uUeh5LJY9TLShIA1N+WFB4BQCes2TIH1s48C/dA+u/B15xz/JTfkzpEddo79wPSQOPIVbBf5UaI8YF3W4nM/Ll/WR/LtG1w9vDqvebHxhUADtw5Vv9Nj64Xd2bbtkl51xm+X3y11HFOkdFZYKC+ipUlu38pMci49LWvsXZASAzYeuGBmjkVhh6wZcnV50E+PaZBDzFkmIOS4Tjcl0DGaiAXdVLhDSy2HNlE3cg3Iv4nszSetdYxvv+OUh3VmC82pWuTZetS9Kg/S/7drZ841kMumXv62XwDZcF0LKTzVLUOl1F8+7Xm47yyj1DybjM/9HetjedZ804jnvVhqb9SFQY4FikC5TSGrmz9Zzt122s8VNv8D75DnSGXKWpATJNbQxA1c5eXdKaP5kuXG/SO7iz8hd/KlwM7/GVcLmMypQDNJHNwx8qWvw4kskOO+XtuUm12HbdRDxEAdqi4ClsgIaA8rsMdIhfqvcL+wfXT8yJBvQdlf431zY2uyvW/uc3EXZJX/bdcHXVq1OjuXXSPP4eXIOWyLtZEL1gFX+/8gJM5bR+X4mfVDDcrG4ZWzDvkNhrSGtnR6c8oUbdQ2akic3/53vlFPmYflefl0SkUbajk/+Im6Jp9u6ZFaZRll0ksEVxrQfa/e7V+/OF09Zhb3TwFzuLsrf9DYXS7UECtcFadrK3fW1A3fIZjYs37nqYrmYvFyuByukBs7So7Fam6/CeiVtz/3Y2+Q7dqbla6NX3/mTsA1Na6fnvArcrBKBGgtokK5Xii3GPiA3dqU028OP/G317tW54x3HCxPayrWmUZapsSkbzTytdap14snyQFiPhAAv886eJze7j+kdb21DNMq+sh8VFNBroMQgY3ZA45E/XLbzoi32WPRyY11PkvinyrW+7u7JV1CnoquStnsibahH5Jt4IEncrsMb9uwOGyi0RZLZ9m4hQC9s2odGSvEN9748fKDwoYoWjZU9RkDNDwzIJYPg/DE2/KEooD3Jksbu5X5mYgZkmMcvhflem8VH9nsWIgTm/c2y4xnYz+LddSODpx2ye3Se8DBXeAZKVl4R9LyrA8Jx3i3PkU8jkGWBwo1GSZuRK4f2S+kiN3d3m936nG2DLgenZMeOys/ohTdfeXM++ulvS0DwW9KGkBsW+nQSQXqDVnx5u6XXQu0AeZ7MhLD27vtkZfrDUn0BKx0h7tEdBXMD9EIRCj0JekpzZqjX9cpfh+THHFnqTZ/+g6UsgQH59NIjtlf+M6SmGpjTe1MWaeN/WJ/Clu+jNjFi+9HRK0e0NzP0bIYAYxagce+L6/7TWz5bz7X47+w5Ktwo6bO9Q0fskJajjq4LWmYtMuddVWBBoMkEZgP1X+12Y14x5+bRDfS5g1cNaLD+he4dq8Z8kvw3ucUvbQkJ1OV/fkXBvxAoCmjWiS4hUJdrvcQrQ/p7HV3rtbiZXebGgFrI3qFCj/lsG2tOwR8boBde1AaxfM2HkqE5b+aflRPAtXKWjb8m+f56mf7Cmo+PXjl8R3help6/xq/2LO5huFEyULhpm8XylSjTUInXeAkBBJpOYG4o2zg7f1LYrWnL0nKQQH103cC3ZIypDmlL/KkMY3N8NpmgcXacPamoQAjU6/NaX1GHKq1s6DTW+3gB+ml8lLcggEC1BcIorDLgi8xPeeuhdcNDcrGVKcV4FKLa7qwfAQQQQACBuhcInW0hUHdjdu+u7sGei6T3/GUSx08wcFzd1y470MACs891NvAusmsI1K9AuIA6NykZ7jeFvdhSv/tCyRFAAAEEEECgBgLFtoPNm5vkEfRjBOc1qAM2icA8BAjQ54HFWxFIU0CGcUnkLnebDOryvfvW7T4s27byXBDPYqdZCWwLAQQQQACBehcotB3soauHxyQT73vattA2Rr3vFuVHoFEFCNAbtWbZr7oX0Oma5S63PHtuvx92Zqukt7MggAACCCCAAALzFSi2IeSx9O9r20LbGPNdBe9HAIF0BGjwp+PMVhCYt4CzYajGvDyH/vPw4T4upvNG5AMIIIAAAgggcELAOf9zaU3kQxvjxF/5BwIIZEmAAD1LtUFZEJgjIPOWSmxuEu/M9Jw/808EEEAAAQQQQGB+AsWb/N7aqdC20Bw9FgQQyKQAAXomq4VCITBXID/3F/6NAAIIIIAAAggsUIA2xQLh+BgCqQkQoKdGzYYQWKgAsyEuVI7PIYAAAggggMBcAdoUczX4NwJZFCBAz2KtUCYEEEAAAQQQQAABBBBAAIGmEyBAb7oqZ4cRQAABBBBAAAEEEEAAAQSyKECAnsVaoUwIIIAAAggggAACCCCAAAJNJ0CA3nRVzg4jgAACCCCAAAIIIIAAAghkUYAAPYu1QpkQQAABBBBAAAEEEEAAAQSaToAAvemqnB1GAAEEEEAAAQQQQAABBBDIogABehZrhTIhgAACCCCAAAIIIIAAAgg0nQABetNVOTuMAAIIIIAAAggggAACCCCQRQEC9CzWCmVCAAEEEEAAAQQQQAABBBBoOgEC9KarcnYYAQQQQAABBBBAAAEEEEAgiwIE6FmsFcqEAAIIIIAAAggggAACCCDQdAK5pttjdhgBBBColYA31myRH5baCGw2WgO+NhtnqwgggAACCCCAwBMLEKA/sRHvQAABBMoT6DeFbCVrElkRAWJ5mgv/dH/xo1ofBOsLd+STCCCAAAIIIFA1AQL0qtGyYgQQaHoB7a/VpRCYm6cNXtzZkbil8mubbbEE6mkeIIn105GffOAXz/qJ2TQQm37ZuAbq/eGmSZolYVsIIIAAAggggMDjChCgPy4NLyCAAAJlCGjwVwzMl+9cdbFPkjXe2wsS55dY51roRy/DdiEfldshUWyOdZ31w1/67av22cTeMrZx94/DqvRGCqnvC1HlMwgggAACCCBQYQEC9AqDsjoEEEBAgu8QnJ+/Y/WZsU/+RILzF3rvI2P9jPU2NvrDkq6AwIt7h7d2mfzjAu+SK7oHV940umHkSyE4J0hPtz7YGgIIIIAAAgicUoAA/ZQs/BEBBBBYoECx53z5zhc+LUmmbpC1LJMA8GiIDyVCNFaz3uW/LOkLWBtbn8QSix+XBwxavDN/2LV95TPH1o98rNiDHion/YKxRQQQQAABBBBAoCDANGscCQgggEClBLQXVp5pPufLqxcl8dR1klX9TPl52EuPuoTkcr7V6JzgvFLc81+P2lutBMlmsInUy8PyyzrpSf/DsC6pLBYEEEAAAQQQQKCWAgTotdRn2wgg0FgCxSnUWtvzr5Ydu1DivXEJBslUymQtS7K7sXoNfFhuq1y1fFvPJaEXXTMgWBBAAAEEEEAAgRoJ0HCsETybRQCBBhMoPMOcnLe95xzpmn2ZBOYTEgBGzKqW5XqWHvVERgyQipKw/DelpHs1AyLLJaZsCCCAAAIIINDYAvQUNHb9sncIIJCWwECh5zWy/lIJzs+U0C9POnta+AvfjtSTk0yHKYnKf235LT1dYU0asrMggAACCCCAAAI1ECBArwE6m0QAgQYU2FToeZWp1C6UvYsl6iPIq5NqlgHjpB89WRTHRuvOmIE+ro11UncUEwEEEEAAgUYToBHSaDXK/iCAQK0EvNnaF3njnyxPN8deh21nqQuBROZdk/spucgmT66LAlNIBBBAAAEEEGhYAQL0hq1adgwBBNIW6F16RIcIz5mEx5jTti93e3I3xcv8a61hPX0DjOdeLiifRwABBBBAAIEFCRCgL4iNDyGAAAKPJ8Bp9fFk+DsCCCCAAAIIIIBAaQFakqV9eBUBBBBAAAEEEEAAAQQQQACBVAQI0FNhZiMIIIAAAggggAACCCCAAAIIlBYgQC/tw6sIIIAAAggggAACCCCAAAIIpCJAgJ4KMxtBAAEEEEAAAQQQQAABBBBAoLQAAXppH15FAAEEEEAAAQQQQAABBBBAIBUBAvRUmNkIAggggAACCCCAAAIIIIAAAqUFCNBL+/AqAggggAACCCCAAAIIIIAAAqkIEKCnwsxGEEAAAQQQQAABBBBAAAEEECgtQIBe2odXEUAAAQQQQAABBBBAAAEEEEhFgAA9FWY2ggACCCCAAAIIIIAAAggggEBpAQL00j68igACCCCAAAIIIIAAAggggEAqAgToqTCzEQQQQAABBBBAAAEEEEAAAQRKCxCgl/bhVQQQQAABBBBAAAEEEEAAAQRSESBAT4WZjSCAAAIIIIAAAggggAACCCBQWoAAvbQPryKAAAIIIIAAAggggAACCCCQigABeirMbAQBBBBAAAEEEEAAAQQQQACB0gIE6KV9eBUBBBBAAAEEEEAAAQQQQACBVAQI0FNhZiMIIIAAAggggAACCCCAAAIIlBYgQC/tw6sIIIAAAggggAACCCCAAAIIpCJAgJ4KMxtBAAEEEEAAAQQQQAABBBBAoLQAAXppH15FAAEEEEAAAQQQQAABBBBAIBUBAvRUmNkIAggggAACCCCAAAIIIIAAAqUFCNBL+/AqAggggAACCCCAAAIIIIAAAqkIEKCnwsxGEEAAAQQQQAABBBBAAAEEECgtQIBe2odXEUAAAQQQQAABBBBAAAEEEEhFgAA9FWY2ggACCCCAAAIIIIAAAggggEBpAQL00j68igACCCCAAAIIIIAAAggggEAqAgToqTCzEQQQQAABBBBAAAEEEEAAAQRKCxCgl/bhVQQQQAABBBBAAAEEEEAAAQRSESBAT4WZjSCAAAIIIIAAAggggAACCCBQWoAAvbQPryKAAAIIIIAAAggggAACCCCQigABeirMbAQBBBBAAAEEEEAAAQQQQACB0gIE6KV9eBUBBBBAAAEEEEAAAQQQQACBVAQI0FNhZiMIIIAAAggggAACCCCAAAIIlBYgQC/tw6sIIIAAAggggAACCCCAAAIIpCJAgJ4KMxtBAAEEEEAAAQQQQAABBBBAoLQAAXppH15FAAEEEEAAAQQQQAABBBBAIBUBAvRUmNkIAggggAACCCCAAAIIIIAAAqUFCNBL+/AqAggggAACCCCAAAIIIIAAAqkIEKCnwsxGEEAAAQQQQAABBBBAAAEEECgtQIBe2odXEUAAAQQQQAABBBBAAAEEEEhFgAA9FWY2ggACCCCAAAIIIIAAAggggEBpAQL00j68igACCCCAAAIIIIAAAggggEAqAgToqTCzEQQQQAABBBBAAAEEEEAAAQRKCxCgl/bhVQQQQAABBBBAAAEEEEAAAQRSESBAT4WZjSCAAAIIIIAAAggggAACCCBQWoAAvbQPryKAAAIIIIAAAggggAACCCCQigABeirMbAQBBBBAAAEEEEAAAQQQQACB0gIE6KV9eBUBBBBAAAEEEEAAAQQQQACBVAQI0FNhZiMIIIAAAggggAACCCCAAAIIlBYgQC/tw6sIIIAAAggggAACCCCAAAIIpCJAgJ4KMxtBAAEEEEAAAQQQQAABBBBAoLQAAXppH15FAAEEEEAAAQQQQAABBBBAIBUBAvRUmNkIAggggAACCCCAAAIIIIAAAqUFCNBL+/AqAggggAACCCCAAAIIIIAAAqkIEKCnwsxGEEAAAQQQQAABBBBAAAEEECgtQIBe2odXEUAAAQQQQAABBBBAAAEEEEhFgAA9FWY2ggACCCCAAAIIIIAAAggggEBpAQL00j68igACCCCAAAIIIIAAAggggEAqAgToqTCzEQQQQAABBBBAAAEEEEAAAQRKCxCgl/bhVQQQQAABBBBAAAEEEEAAAQRSESBAT4WZjSCAAAIIIIAAAggggAACCCBQWoAAvbQPryKAAAIIIIAAAggggAACCCCQigABeirMbAQBBBBAAAEEEEAAAQQQQACB0gIE6KV9eBUBBBBAAAEEEEAAAQQQQACBVAQI0FNhZiMIIIAAAggggAACCCCAAAIIlBYgQC/tw6sIIIAAAggggAACCCCAAAIIpCJAgJ4KMxtBAAEEEEAAAQQQQAABBBBAoLQAAXppH15FAAEEEEAAAQQQQAABBBBAIBUBAvRUmNkIAggggAACCCCAAAIIIIAAAqUFCNBL+/AqAggggAACCCCAAAIIIIAAAqkIEKCnwsxGEEAAAQQQQAABBBBAAAEEECgtQIBe2odXEUAAAQQQQAABBBBAAAEEEEhFgAA9FWY2ggACCCCAAAIIIIAAAggggEBpAQL00j68igACCCCAAAIIIIAAAggggEAqAgToqTCzEQQQQAABBBBAAAEEEEAAAQRKCxCgl/bhVQQQQAABBBBAAAEEEEAAAQRSESBAT4WZjSCAAAIIIIAAAggggAACCCBQWoAAvbQPryKAAAIIIIAAAggggAACCCCQigABeirMbAQBBBBAAAEEEEAAAQQQQACB0gIE6KV9eBUBBBBAAAEEEEAAAQQQQACBVAQI0FNhZiMIIIAAAggggAACCCCAAAIIlBYgQC/tw6sIIIAAAggggAACCCCAAAIIpCJAgJ4KMxtBAAEEEEAAAQQQQAABBBBAoLQAAXppH15FAAEEEEAAAQQQQAABBBBAIBUBAvRUmNkIAggggAACCCCAAAIIIIAAAqUFCNBL+/AqAggggAACCCCAAAIIIIAAAqkIEKCnwsxGEEAAAQQQQAABBBBAAAEEECgtQIBe2odXEUAAAQQQQAABBBBAAAEEEEhFIJfKVtgIAggggAACCCCAQPUFvLFmoM+ZpUdsr2xtqHepr/5Gm2cLvUNH7JDu7hFx7RtIRBvf5ql+9hSBVAQI0FNhZiMIIIAAAggg0PQCURWDOQ3Mh3ojY4fyxgzEaj3U9OCVB3iM6a7enOkdignUK2/NGhFoVgEC9GatefYbAQQQQAABBNIV0DCuGos3TtacSEieX7prxeJF+fbL5deXyO2ALmN8ezU22bTr9HbKWH/YGnt7lG8dOrhm6JFgcaIOmlaGHUcAgQoJEKBXCJLVIIAAAggggAACpxTQNGjrneRCd57y9XL+uLVPes0LPebdg6veZGb8G22b6bZRZIz8fxX77Mspdf1+Vm+xSH6CT7zJH5++v3v7qr8f/eae94cbJFoXmwp1Ub87SMkRQKDWAgTota4Bto8AAggggAACDS/g9Wllk2jIXLmlGBBeeHPP0nzODLgz3OX+eGLkJ/FyU0BuCPB8dOW0T6xJKjL8v83Z82yHe2/3i3t+O95ufvf+9QP/YQjSTzjxDwQQWJgAAfrC3PgUAggggAACCCAwPwFnKxcw90tau/TWLvvKRWdJcL7LLY5WJEfjGSmQ9KjLa7JoZy9LtQS88XmT+KNxLPaX+fH41gsGL37xvRsGfma0bvr1kQMWBBBAYP4CTLM2fzM+gQACCCCAAAII1MebGW8AABgeSURBVFZgc6F33LW2/KM7Q4Lz8XhaCtQiP7Tt0qsZtW5R+2hxdGHsok+FTfeTuZBeFbAlBBpPgJN449Upe4QAAggggAACjSwQnjs3vnvn6t+2HfZ3pOdcR21vbeRdzvi+tcbjcd51RBu7dqx8jZTVh1T3jBea4iGAQDYFCNCzWS+UCgEEEEAAAQQQOLWAzr+tS5L8GWnspyZK+6/6ULoOHGe8+9OwbQaLS7sK2B4CDSNAgN4wVcmOIIAAAggggEDDC+h85zIA3AWDzz9P9vVFyVSI1WnP1bri5bl/L3UhVXPpBdtWXRiKo8+isyCAAALzFODEMU8w3o4AAggggAACCNRMYKAvtN3iJHqecbZTkqk1ZGeptYDWgtSFjOzeFtvk+aE4z+ujZmpdL2wfgToUIECvw0qjyAgggAACCCDQpAJ9xf2O3NkSDOrTzoTomTkUbGJaNE63Tw5FWnqEAD0zdUNBEKgfAQL0+qkrSooAAggggAACzS4wVAj6vPMu9JxXbuK2ZpetwP4Xnj+QiqnsfPcVKBmrQACB+hEgQK+fuqKkCCCAAAIIIIAAAlkXcNKJzoIAAggsUIAAfYFwfAwBBBBAAAEEEEAAgccI6FhxLAgggMACBQjQFwjHxxBAAAEEEEAAAQQQQAABBBCopAABeiU1WRcCCCCAAAIIIIAAAggggAACCxQgQF8gHB9DAAEEEEAAAQQQQAABBBBAoJICBOiV1GRdCCCAAAIIIIAAAggggAACCCxQgAB9gXB8DAEEEEAAAQQQQAABBBBAAIFKChCgV1KTdSGAAAIIIIAAAggggAACCCCwQAEC9AXC8TEEEEAAAQQQQAABBBBAAAEEKilAgF5JTdaFAAIIIIAAAggggAACCCCAwAIFCNAXCMfHEEAAAQQQQAABBBBAAAEEEKikAAF6JTVZFwIIIIAAAggggAACCCCAAAILFCBAXyAcH0MAAQQQQAABBBBAAAEEEECgkgIE6JXUZF0IIIAAAggggAACCCCAAAIILFCAAH2BcHwMAQQQQAABBBBAAAEEEEAAgUoKEKBXUpN1IYAAAggggAACCCCAAAIIILBAAQL0BcLxMQQQQAABBBBAAAEEEEAAAQQqKUCAXklN1oUAAggggAACCCCAAAIIIIDAAgUI0BcIx8cQQAABBBBAAAEEEEAAAQQQqKQAAXolNVkXAggggAACCCCAAAIIIIAAAgsUIEBfIBwfQwABBBBAAAEEEEAAAQQQQKCSAgToldRkXQgggAACCCCAAAIIIIAAAggsUIAAfYFwfAwBBBBAAAEEEEAAAQQQQACBSgoQoFdSk3UhgAACCCCAAAIIIIAAAgggsEABAvQFwvExBBBAAAEEEEAAAQQQQAABBCopQIBeSU3WhQACCCCAAAIIIIAAAggggMACBQjQFwjHxxBAAAEEEEAAAQQQQAABBBCopAABeiU1WRcCCCCAAAIIIIAAAggggAACCxQgQF8gHB9DAAEEEEAAAQQQQAABBBBAoJICBOiV1GRdCCCAAAIIIIAAAggggAACCCxQgAB9gXB8DAEEEEAAAQQQQAABBBBAAIFKChCgV1KTdSGAAAIIIIAAAgg0t4AzvrkB2HsEEChHgAC9HD0+iwACCCCAAAIIIIDAXIHE2Lm/8m8EEEBgPgIE6PPR4r0IIIAAAggggAACCJxKwBvrvTfemZlTvczfEEAAgdMRIEA/HSXegwACCCCAAAIIIIBAKQErPeczEqD75KfhbUeWkupeyovXEEDglAIE6Kdk4Y8IIIAAAggggAACCJy2gDfOWhP78ZZ8si98qm8gOe1P80YEEECgKECAzqGAAAIIIIAAAggggEAZAvLQeezanZGI/OsHr9r3gAwTp/3p9KCXYcpHEWhWAQL0Zq159hsBBBBAAAEEEECgfAEJxCUetz6WeNybvw8rHOijjV2+LGtAoCkFOHk0ZbWz0wgggAACCCCAAAIVEfBmxi2JIj+VfGpsw/BXTb9xZtNAXJF1sxIEEGg6AQL0pqtydhgBBBBAAAEEEECgbAFvEukzz7sludbkaP4bpuXBN4R1bia1vWxbVoBAEwsQoDdx5bPrCCCAAAIIIIAAAvMWkJR2k7et1kWLolzyyMzW6eNu4+ia0eMSmjuePZ+3Jx9AAIE5Ark5/+afCCCAAAIIIIAAAggg8PgCmroeRYujXDweP+BnkhsOrx/5THh7IThn5PbHt+MVBBA4DQEC9NNA4i0IIIAAAggggAACTS2ggbe3HS7yxxMTjycf8x35dxx+6d0PhmfOlcbqIO4sCCCAQHkCBOjl+fFpBBBAAAEEEEAAgUYV0BHavUyhlrM52+pMPJm/zSX+2tGNe78TdnlXb86sGco36u6zXwggkL4AAXr65mwRAQQQQAABBBBAIPsCsTxTHtLZk4n4J+ZY/p1j60c+GYq9tS8yfQOJsQTn2a9GSohAfQkwSFx91RelRQABBBBAAAEEEKiugKaqx7bdRTLkm5Hg/OO5GXPxoXVzgnOdRk1616tbDNaOAALNKEAPejPWOvuMAAIIIIAAAggg8BiBMG1aMZ3dT8a3+9hcP3bl8B3hjbPp7Mxx/hg3/oAAApUTIECvnCVrQgABBBBAAAEEEKhPAR2d3eno7MnR+IjPJ+8YXT/8ibArms5+YMDzrHl9ViylRqDeBAjQ663GKC8CCCCAAAIIIIBApQQS6TVPXLvLmbw3yXj+RpNveevo1Xf+JGxAg3N6zCtlzXoQQOA0BHgG/TSQeAsCCCCAAAIIIIBAYwloOruJrIs6pdf8eHKXz/ve0fUjf6zBea+ms+tCcN5Ylc7eIFAHAvSg10ElUUQEEEAAAQQQQACBSglYSWf3hcB8PH4wmchvkdHZPyJr96aYzj7E1GmVwmY9CCAwTwEC9HmC8XYEEEAAAQQQQACBuhSQKc1lTvN2m/Myc7mMzv6pfC552wNX7P1R2BvS2euyUik0Ao0mQIDeaDXK/iCAAAIIIIAAAgicJKDp7DayuUieNU8mkz0+kdHZNwx/LbypMDp7TDr7SWT8ggACNRIgQK8RPJtFAAEEEEAAAQQQqLZASGe34TnzifhhCc63jN6+58Om3ySz6eyMzl7tOmD9CCAwHwEC9Plo8V4EEEAAAQQQQACBehAopLO32ZzxVtPZ/9nOmLccunrPWCg86ez1UIeUEYGmFCBAb8pqZ6cRQAABBBBAAIHGFAjp7E7S2TtcLp5I7pGnzd8sg8DdrHuro7MP9Q7Fxg7ovOcsCCCAQOYECNAzVyUUCAEEEEAAAQQQQGDeAjKNubHGFNPZJ5Jj+b9+yqHo/bv/68iM2Woic8B4RmeftyofQACBlAUI0FMGZ3MIIIAAAggggAACFRUojs7uJJ1dR2dPBuK8u+H+q3bfO6qb8X0RPeYV9WZlCCBQRQEC9CrismoEEEAAAQQQQACB6gmcSGdfJKOzj8cHnLdvPrRhz1fCFnV0dtLZq4fPmhFAoCoCBOhVYWWlCCCAAAIIIIAAAlUT0HR2WaLFUU4GgDvmJ5K/7nxo+n37N+2fll50F7Zrh2S2cxYEEECgvgQI0OurvigtAggggAACCCDQzALF0dklnV3CcAnO/8255Pr71u79QUDRXnMC82Y+Pth3BOpegAC97quQHUAAAQQQQAABBBpfIKSzW5PTQeDi8fig8+aG0Q3D/3/Y8xPp7PSaN/6RwB4i0NgChRSgxt5H9g4BBBBAAAEEEECgXgVCOruNo0WRDgI37Y/m/3pmyl1ySIPzfulH15T2NRKYWx0ijgUBBBCobwF60Ou7/ig9AggggAACCCDQqAInpbPHk8m/e2f+4vDakQNhh7XXXAPz/kbdffYLAQSaUYAAvRlrnX1GAAEEEEAAAQSyLOBNLP3iUZjTfDx/n038DWMb924NRSadPcs1R9kQQKBMAVLcywTk4wgggAACCCCAAAIVE9DR2WPXGUWSsD6THI3ffcwnFx/S4Jx09oohsyIEEMiuAD3o2a0bSoYAAggggAACCDSLQCGdvcXmbM6ZZDLZHvv42vs37LsnAJDO3izHAfuJQNMLEKA3/SEAAAIIIIAAAgggUFOBWLYe6Zzm8dH8A27Gv3V0/fCnQ4lIZ69pxbBxBBBIX4AU9/TN2SICCCCAAAIIIICATGMuCLHrcJH81ydH8x+KXPT8QxqcexmTfauJGJ2dwwQBBJpNgB70Zqtx9hcBBBBAAAEEEKitwEnp7PGx+GsmctePXbF7TyiW9prbMJ+59qyzIIAAAk0lQIDeVNXNziKAAAIIIIAAAjUV+FU6+3j8Izudf9vYhpFPhRKRzl7TimHjCCCQDQFS3LNRD5QCAQQQQAABBBBoZIGQzm4L6ewmGU8+7KfzF41qcB7S2ftIZ2/k2mffEEDgtAXoQT9tKt6IAAIIIIAAAgggMC8Ba7zks8dOxma3bc7EE/nbEmPfdP/6PXeF9ZxIZx8gnX1esLwZAQQaVYAAvVFrlv1CAAEEEEAAAQRqKxBL73gYnT2ZiH/qJ5LNY+tHPhGKRDp7bWuGrSOAQGYFSHHPbNVQMAQQQAABBBBAoC4FCuns7TI6u7OSzh5/Ikrii0fX7ykE51tJZ6/LWqXQCCCQigABeirMbAQBBBBAAAEEEGhwAU1nNyYvyezOLYoiP5Xc4W3yYpnT/A33btj3s17tNddlE+nsDX4ksHsIIFCGACnuZeDxUQQQQAABBBBAAAEVsPIMuXfR4ignPeZHfBxvHl03/PFgoz3mBwb80JowdRpcCCCAAAIlBAjQS+DwEgIIIIAAAggggEBJgcKc5u0252eMiY8mn7T53DtHr77zJ+FTGpzTY14SkBcRQACBuQIE6HM1+DcCCCCAAAIIIIDAaQmEdPbI5qJ2l4sn4rucs9eMbtjzjfBhTWdfMxQTnJ8WJW9CAAEETggQoJ+g4B8IIIAAAggggAACTyxQTGfvlHT2ifhBmdP8L8fWD/+dkWfQTTGdXYLz/BOvh3cggAACCDxagAD90SL8jkDmBGjjZK5KKBACtRI4Wzb8cK02znYRCIPAxU7S2Y08cR5Pxp+WvPa33bvhnvuDDensdXCIaJsiqoNyUsSTBHReBHvSX/ilgQUI0Bu4cufuGt/ruRr19W/rWySLkKV+BPTbphNk6H9Z6kZAqsxam/nvWpSXcEgbaZkvad3UfP0WVAJk05Je8eems/uJeLds/s2H1w/foiXQ0dmHeiWd3TI6e3o1srAtaZvCc31aGF4tPyXXqES+hNxaqWUlpLdtpllLz7pmWzrW2nZM2nNECzWrgYVu2OnN0tjPxFNhDVsWuh4+l5bA0K1DiUnslLFeQyiWOhLwiSbn2uOhyAN92au/YommZlokPnczUtrslbGO6rsWRZUK85F3hWOsnAIcWRpuz1hnxuUKob1qVT4WNJ1dyi7p7BIhPCTPml936JvDvx6Cc+0x7zcujM6u6e0s2RXYUiiaN/GUHDBSp4QA2a2sU5dM6i05Np0cO/Wr/LWRBPh2NlJtPnpfipfss44cf8RaSYr0Xm68Eac/mimzv3vvpLUzbRbnCiPhbqbxk9m60oJ5aST3hxvcP5N2as777PfGZtozxcI5CXDkZzoy7qdhs30DWQw0QplGe4fkhl3yM/klkg7/LJYzxZqrn03JOcF5JzfvfFz+MSbTleme52J/0OR9PgTo1QmOC3Oat9nItlgbT+Y/GyW5i+VZ8w/ouS48a66js+u/WbIvUGxDJN79VJqH09ImJAbIfq0VSyhfMWnDyxfy4bOOHX8k/LHYxq+bXaCg8xLgyzkvrrp7s9c72/s37ZcTsf2+3C1tlRiCC2kdVKPcUEmkD1aaROaBsZft/nEocnUaYHWgUSdFHCh2R0Tmu6Fngvqqk4oLUW7krT1qk5kfFAudzcDXyzEWjiv3PWmbtUi6YzbLWSc1n14x5WadlyA38Y/E+TN+WPYx1l+o94Pf2vtduaZ/17ZIUy6p7LEgB1beOGu11zyZ8veYmXjD2LqR19674c77NZ093JBk6rT0DqFKbKl4Tbp/3fCP5fzxo2IbgzZhJWyrvI5C2921ylfy+6FNL2172STn/yq713L1BOi11E9x21FLdJucjGe0pyjFzbKpBQpow1sb4Na628IqtGHOkm2BvkIvUut063ckxV17KFr1lne2C03p5KsmoY3tkFuXe+/dsO9nIfDI7s2VcDw5626XvOZxOcYkK4pMjawfxeEYs7Zdzue7D7/itgf1xnnhRsuCSy6rDKnlifXJp22bHAlOU5YrsBQeTk6K6ewTyXh8w1jLkp5D6/duDz3mUnbS2SvgXKtVFG/ySQ/AbdrG4CZfrSpiftuVS5KT1sRM7ONCm3B+H+fddShAo78OK21eRdbUM7n1du+au+5xxn9LvuBnhDvj81oJb05TQOonli/mIrl4/rDzl1NfC9vObsCQJk22t6V1JI2fg1d9W9LPon+XwrYX7npnu9jNXTp5EMGanPyMRyb3xWCxJcM3MfUYkwDpvnW7D8uAdrukpIvloKtMYNbcB0LV9l6zoeRHhnLzD5uZ6Kawoc1Sj2UvA6Hnc9Ik/ys5Gv/QtjodTbScKT/0bmLetstM5q3OJZPxF7yPLxrdMPyeMF3a7OjspLOXXXM1XUGxLbH43Olb5PxxUDptOrTNUdMysfGSAoXvtV0sEfq37t+w7x45e4TH6Up+iBfrXoAAve6r8PR3wJnoRgn6DsuPNOrKupCf/kZ557wE9EIp18826dE7FkfRP5DKNC++2r9ZGuNaiLF1uyVAt7dLw/xMafVK40fbvixZEpB+Z6krqSHpPZdG6qc1dVdvsEgAHOowS2U9qSzF4C4388jnpFPlgCRFLSk24DjGToKq/S96jMk330mI3uacu3H06jt/Eo6xYpBUVgl1HRI0/3TDvgnv/R/5qSRxOZn6TDLl5rvecPxoOvviKCfrOWCn/CtH1w3/3tiGfYcM6ezz5cz6+wuPPq7YPx3n3D/ILUoZMM63yTFAkJ7BmtPvprbZte3uoujGDBaRIlVJgAC9SrCZWq1eyAu9Lg/7JHqvNEo1SD9Ty1g4KRM81La+5BnYECxob55fLLmKE9KYe//9V+y+Vyoo+wFDbfGyt3W9uy3LU852H5H/3C4jLZ8pQWCk3zXtTctegZupRDK8vnzX9CexRlKObYtkiP/v+9YO75Tvmj4AlP36KZ7PD151cMq2JO+Tez/flePqSfJfHVSSm0E1P5x/dYzJ8dQhB1VOshw+cWjtnm9U/BjTZ8AlSB/bMPJNuYa8wsf+mOuIdOI1nY1Je9PlP4+7zL7HFNPZJ/1E8vbOh6Z77tuw5yvh2qPXnzVDOghdqfU87gZ4IaMChcxK98CaPQddbN8vN/omC20PaYoU2yIZLXmTFEuroXDDRK5VT9I2u7bdJXPqYW3L831sjsMgNCSbY1fZy3DBlQbo0q0rFi8+u+01SZK8VDqQFsmJQKbtkZFgpRWBUsoCGhKE0fWdPK9spn2SjEjG7T+NbZSB4bRxVA8BQ8pkdbG5QrAXvk/dO1b+ljzlfLV8154slR3LlVenyMp+IFgX0PMoZKFO5Ekf3yp14WXY9nvtjP3coSv37JPvWvgmzmNttX+rNtSkob1i64rWySe1vlpO3y+XO3xLpGmXl0adBlUcY2nX0uwxZn2rHGGJRMAH5bbcZw5fNXygqsdYMf28a8eq50pM/hHpSV8rffZGesPlyi6noUdf2aVrxubk8tIqB8lEuKezVf709vvWjxQGsNNecw3MWRpboNjGOG97zzkymMUfyGGyUnZY2iLJtJwjYzluHn3kNLZHFvZOrkRyGslJt422CSdkvJGvTyb5z2mmjNQGbcIs1FFKZSBATwk6M5spNuq0PMtv6eny0+ZFMvnac+WU8HT58ndkppzNUhBvp6X364gEbT/wPvn24Y1794dd50Rc/0fAnKDv3G0rzna27UUuSi6S++LnyWW2U+qcDKYUa1kudnkJmB6yzt0r57vdY7+88DumMEVU/WapzDmfd3199TPMVPIiaVM/3yXmHAnW5XyuY02ypCWgx5h8rx+UmyP3usTfeehbe+8Kj0zMqaeqlWX2GXHZwLKdPWvlBsEmaeS/RH7tlp+513YJuuxR+Q4clH72W+PIfP7+tSN3yntMSGfvHYql/ARmAaQJ/mdOW2PZtktWyECGL5Q2ybPkOF4qx4gGiSxpClhzTE7bP5Eo/YA8sHLHoSuGx8Lm0ziHpLmfbOsJBf4vBkHc7l8/3JwAAAAASUVORK5CYII=;" parent="1" vertex="1">
                    <mxGeometry x="325.63" y="531.44" width="91.78" height="30.38" as="geometry"/>
                </mxCell>
                <mxCell id="13" value="" style="image;html=1;image=img/lib/clip_art/computers/Network_128x128.png" parent="1" vertex="1">
                    <mxGeometry x="331.52" y="626" width="80" height="80" as="geometry"/>
                </mxCell>
                <mxCell id="14" value="" style="rounded=1;whiteSpace=wrap;html=1;shadow=0;strokeWidth=5;fillColor=#006969;fontSize=20;fontColor=#ffffff;align=center;strokeColor=#009999;arcSize=3;verticalAlign=top;fontStyle=1;fontFamily=Titillium Web;fontSource=https%3A%2F%2Ffonts.googleapis.com%2Fcss%3Ffamily%3DTitillium%2BWeb;dashed=1;" parent="1" vertex="1">
                    <mxGeometry x="190" y="200" width="380" height="250" as="geometry"/>
                </mxCell>
                <mxCell id="15" value="" style="shape=image;verticalLabelPosition=bottom;labelBackgroundColor=default;verticalAlign=top;aspect=fixed;imageAspect=0;image=data:image/png,iVBORw0KGgoAAAANSUhEUgAAAcwAAAHMCAYAAABY25iGAABLSklEQVR4nOzdD4wc1Z0v+tNvRnVsi6PnqPvqOvV8tUbLKqCwwvT0KraW1fQoWWEEVxgtEUYhwiiMCxQibIUIo3jV1VoQRiHCaB1B2UQYhQijBWEEEUYhmhpdIoi2p220RBiJCF+JW5nV61bm6aDxnNK0+qnMcXZwZur8uqq6p/98P5J3E0+5qjJT07865/zO7/d/MQAAADBCwAQAACBAwAQAACBAwAQAACBAwAQAACBAwAQAACBAwAQAACBAwAQAACBAwAQAACBAwAQAACBAwAQAACBAwAQAACBAwAQAACBAwAQAACBAwAQAACBAwAQAACBAwAQAACBAwAQAACBAwAQAACBAwAQAACBAwAQAACBAwAQAACBAwAQAACBAwAQAACBAwAQAACBAwAQAACBAwAQAACBAwAQAACBAwAQAACBAwAQAACBAwAQAACBAwAQAACBAwAQAACBAwAQAACBAwAQAACBAwAQAACBAwAQAACBAwAQAACBAwAQAACBAwAQAACBAwAQAACBAwAQAACBAwAQAACBAwAQAACBAwAQAACBAwAQAACBAwAQAACBAwAQAACBAwAQAACBAwAQAACBAwAQAACBAwAQAACBAwAQAACBAwAQAACBAwAQAACBAwAQAACBAwAQAACBAwAQAACBAwAQAACBAwAQAACBAwAQAACBAwAQAACBAwAQAACBAwAQAACBAwAQAACBAwAQAACBAwAQAACBAwAQAACBAwAQAACBAwAQAACBAwAQAACBAwAQAACBAwAQAACBAwAQAACBAwAQAACBAwAQAACBAwAQAACBAwAQAACBAwAQAACBAwAQAACBAwAQAACBAwAQAACBAwAQAACBAwAQAACBAwAQAACBAwAQAACBAwAQAACBAwAQAACBAwAQAACBAwAQAACBAwAQAACBAwAQAACBAwAQAACBAwAQAACBAwAQAACBAwAQAACBAwAQAACBAwAQAACBAwAQAACBAwAQAACBAwAQAACBAwAQAACBAwAQAACBAwAQAACBAwAQAACBAwAQAACBAwAQAACBAwAQAACBAwAQAACBAwAQAACBAwAQAACBAwAQAACBAwAQAACBAwAQAACBAwAQAACBAwAQAACBAwAQAACBAwAQAACBAwAQAACBAwAQAACBAwAQAACBAwAQAACBAwAQAACBAwAQAACBAwAQAACBAwAQAACBAwAQAACBAwAQAACBAwAQAACBAwAQAACBAwAQAACBAwAQAACBAwAQAACBAwAQAACBAwAQAACBAwAQAACBAwAQAACBAwAQAACBAwAQAACBAwAQAACBAwAQAACBAwAQAACBAwAQAACBAwAQAACBAwAQAACBAwAQAACBAwAQAACBAwAQAACBAwAQAACAY78ZJLaeyhTG2oVXzG6252c+7cY1hYzmV7YyxbzLGrmCMLTDGfhV61U+6dj3LGuec38EYu0r/1Vkp5evduh78l0u/H6FXPb/e9wIAdLksT2Y5lc3ccV9jjJX1Xy0oz50KverZLK8zbES9/SBj7Mhlfz2vPPfK0KsudeOatm2vds0oaO6UUnblmqPOcirbuOM+v+L3I3JQFnNPrONtQY/Ztl3u5fWCIPB7eb1hllnAHJuYHN903P/1ZR8GTH/w3xl6VfzQVmE5lTJ33H9jjBVW+fIJWczdk/U1hRA3CiFe0aPZL1FKHW02mz/I+pqjTv9+nGGMXbvKl88tTpdvac3N/mEdbg16wLKsKwqFwg8ZY/cxxras0200GGOfM8Y+i/4opebDMDzHGPuYMfaJlPKzdbqvgZFZwLScyg7uuO+t9XXluRu7NVoaVJZTuZo77keGw74ii7mFrK4phNguhDgTc8h8EARfzep6w07U2ys/AM/KYu7UaseZfj8YY4dlMfdId+4S1ptt248zxg6u930YvM8Ye1lKeVJKOb/eN9OPslzDnDB8vcQYezfD6w20aMTBHfcpwqFX6wc5NSHEBiGE6Zqbs7jWMIp+ZmOl8rVjE+XJ8VK5zBi74fKZAVFvv784Xb6zNTd7/sv/tvxNw+lXG3nC8Ni73jdAsCP6I4R4XAgRjTxrUspXGGO/k1Jm9tI+yLIMmKtNKXbrWgPPctwKY2yX4bBoxJJJsLQs66+FEO8wxrYZDl11hDSqdJC8YWyifON4qbyXMJ22w3LcBy/smzqw8i/HS+WrDP9uQ/q7hX6k1yzXaxo2iehZ3B79EULcy7542X5XKXUyDMNfSSlHNlkNQWwdiHo7ehgPmY5Tnnt5Uk5ihULhSUKwZFJKJKBollPZwh33Lf3hQTZeKq92vOkNHetHw2sYAswNnPPoz1EhxAkp5f2jmByIfZg9ZjmVbzDG4tayLnm/VfN/mcU18/n8NxljtxgOW5BS7pJSjnxGs+VUJkW9/bxeX+4oWK5Fee6LjLE1P2CU557O4jrQf4IgOD9ky1F7hRAf2bb9lBDiuvW+mV5CwOyhsYnJaMTyCmH67ezidPnbrbnZ5bTXFEKUOecnTbMJSqk9Usq3015vUI1NTF6x8dhMRdTbn3LH9fWaU9L13L/YPxt61TnluTsYYycuG03WlOfuDr3qy8nvHvpdo9H4tv7ZD8ta4DbG2H4hxFnbts/k8/kHLcsa+mUFTMn20Kbj/sOMsa2Gw+YZY1OtudnUv1hCiKuFEDOEQ081m82RDZai3o4C40yGo8nHVvv70Kt+EHrVe/Q1y4yx87KYG4bpOjAIw3A+CIJ7hBAHhBCZPGdEl7b5fUMn9XQjqW875/wI53w3Y+y2IAiG5aXgLyBg9oiot+/We7BiLdf8/Rf2TaV+4CzLGhdC/Cvh0PlGo9Hv6e5dEY0qdfLVAxkk3USjxjeV5z5BqeAjiznsSx5BUsoFKWUvf/ZfupYQYot+af9ry7Ku4pyX9Ivi1gziQRSc/5jP55+VUlbDMBy6wImA2QOWUynr6RgT/8K+qUym5jjnNzPGvmU4bIkxds0wPtgUm477b6xSaKNT0c/1aVnMjfzaL/Q/vb8y+lNb+fdRIBVCPJxyKSKygXO+n3MejWZvGrbRJgJml41NTG4g7rdcUJ67P4trCiG2CSGeNB2nlHqo2WwO1QNNsfHYzHfGS+UnE6b6L+iR5DuMsd+EXhXZrTDwokAqpTzAGLs0ZfwNIUQ0+txN2DK4mh16tHk4DMMnhiWjFgGzyzYd958hrI19qDz3H0Ovmrq6Rj6fn+ScnyZMMZ5oNps/S3u9QbLx2MzkeKl8JMFa5ZIOkk+GXvV3Xbo9gL6gM+XPSik9y7Lu55yXLMu6kXPeaVm/aLTpcs4PWpZ1qNls/rSLt90TCJhdJOrt/ZQKH8pzH8oiWLIvpmKPEILlgn6bHBmWU9k2XipTXiQuF/2bO7MsTwgwKMIwXA7D8H3G2PtCiCeEEAcZYw92OG0bBc4nbdseD4JgoPd5Y1tJl2w8NnMzY8w0FbvMGNsfetXUGaqWZV2Rz+cdwujpvO5IMjIBwHIqN+oCBJ0Ey7PLNf/exeny/0SwBLg48lwKgsBtNBrXKKWOJNgi86ht2y9ZlmUsoNKvEDC7IPqAHi+VT5qOW675+2Ux93QW1ywUCi9xzo8aDpuXUu6WUp7L4pqDYOOxmae4c7EowNWEw6MXmNPKc2+Qxdz1F/ZN/TyLvbAAwyQMw/lms3kgCIKvKKVu15m4lN+TccbYnkKh8O/5fH6yB7eaOUzJZsxyKtv1B7TJ2Qv7pjJZQxRC3Eqo5LPEGLtJSvlBFtccBJZTuXW8VO4kkeqhrF5gAEZBs9l8lTH2qm3bdxN3AkQKnPPTtm3vDIJgoLLLETAz1EEHkqXlmv9QFtfU6eCHTccppR5tNpsD9XCmEQVL7rjPEg+fX675h6IRZZdvq2NCiNjpq1EuhA39IwiCF4QQ83qNk7JVawNj7L18Pn+w2WwOzEsqAmaGLMd9nPCwnFeee1PoVVNPiwohJoQQ7xLW5l5pNpurVp8ZRhuPzTw+XiqTijEs1/xHW3P+Y73u1SqE2MoYu4ox9jXG2JYV/32b/nmSshGFEEzPHszrNaUF3Qz4E130+2Ol1IdhGGJqGbpKSvl29EcIMSmEeJFQ1WwD5/xIPp/f3Gw2qz26zVQQMDMi6u3djDHjqFF5rptFsGRffFgepSSySCl/kMX1BoHlVLZTgyVj7MSFfVP/3OVb+jO9P3YvY+zWrMrwaRsu60RT1oH00nWjYHqSMfbCoE2BweCRUs4yxv5BN6o3ZtNyzl3btrcFQXBPb+4wub4PmLoa/qUPlwZj7Df9tgl247GZScbYS4RD382wA8ndenNwnHkp5U2j0j3dciobuONSygFGo62ji9PlrgZLIcTVjLEJIcQNuoF6qZvXixGNVvdHf2zbjp6Fd3Rj4Lf77Xepn4xNTP71puP+A7q5d99/Vq5wcZpeee55XbLxD9H/D73qXzQF6Ba9VPBVy7J+wjl/gPBP9ubz+YVms9nX2936+iGwbfsp/Yu+0gJjbKqf2lDpzfDGkZ7y3B9kkXVp23b01mbslSmldPvp+9RteuvIDYRDu5rco9eVX8qg7F43RMHzLiHEXeyLez046HvjumXTcf+VjGcCeoo77uX//bxuEP9CL0o56pexH9i2PccYe950POc8eqH7/4IgcLt9b0n17bYSIcTNqwTLyGYhxPF1uKVVbTw2833CL9XnuoVT6odU72GiTHXUlFJ9l8TSLRuPzTxICFDRy4q7OF3OvMKRZVmb8/n8923bfksI8WmfBsvVHLZt+4wQ4kHLspKUChxKot5+fpCD5Rq26c/UM6Le/qOot9+wnMr3LKdC2XKVWBAEJ/T2k88Jh1fy+fyD3byfNPp2hGlZVtxIoSSEuEonNqwbUW9HP1hjzdblmr839Kqvp72eZVlXFAqF1y5br1rN2UajcduoJHqIevvW6IPfdNxyzd9zYd/Uq5leW4ibhRC365qb3Wid1AvbhRBHhBCHlVKHwzB8epQKW1zOcipbKRW6Blz0cnQLd9yL29G44362XPOfa835r7dq/odZ7z9uNpuv5vP5ec75K6aENp0I9JnestJX+naEyTk3ve2aMrC6ynIqt+ppUdNLx+msPqQLhcL3CG+9F/tphmE4EkXBLaeyTU8zmabET2UdLG3brggh3sygw0O/uFj7MxohCyFM6+PDrG8HEl20dbxUdrnjntl03H9D94jNVLPZ/C1j7BrGmDHpkXP+nF566iuj+GCkZjmVLdxxHyUcOq88N5Nek0KIMmPskOk4pdT+UepAMjZRfphw2PzidDmTfa/si4Qrh3O+n1g9qFOXtojM6//8uU52u9zKrSfRy+MVCbuvrGazEOItIcSzjUbjp2EYrnZ9GF67GGN/EvX2KeW5h0Kv+vusThwEwYJlWbsLhUJNP7NriYLlGcuydoVh+HFW108LAbNDllOZ4M7F1k6mt5+zer9lFh1I7uCcm0rtNZRSJ5rNZib9NAeB5VSuGy+V7zUcFv0cdrbmZlNng+bz+e9zzg9lEJiiF5r3ozdtvawQ/flPpdQnYRhS1nlWZVnWBj0z81d6mnW7DuqlBL/r0fN9sFAo3CWlvGWUKkTBn+3mjnsLd9x3l2v+kQv7plIvK7EvSut9rJTaRZie3VYoFF5pNBo70/xeZAkBs0PccZ+kTL9FI8ssgiU1I5Yx9mgYhl7a6w0S7rh7Tc+w3veaOljatv0wZZ3UIHrp8YIg6ErH/TAMl8IwPK+3FcxKKS/+vRDiaiGEk3DqeKsQ4rQQ4pphawYMJNHvV3m8VC6Lejuz2tfNZvO3tm1fwxj71PBMXlsoFL7fL5ncCJgd2Hhs5jvETMwHMupAspUx9gZhRPNho9H4efSBmfaag0KvXZoSM2qtmv+rVNexrK2FQuFfGGN3Jfjn5/Wex3cYY7+VUq7LurKUMhrJHrAsq8o5nxRC3KL/91C7t0TP30f5fP52vQ416k7IYq7vNtmPTUyOj5XKW1dM1//3sYnyteNf/N32DPaTPinq7V36JTR1X9joBSyfz99HmD3bL4R4ux+2yCFgEulFcGNGLGPsOVnMZTLS0x/UxtR2KeVD/TJl0Su6Zm/saEl57tG02X6FQuGNhA2n9wZB0FfT42EYLoRh+LqU8nUhxM+EEJSM60u2cM5fEUJciWIH/Sl61ltzs5dqC+vEmuqfn0Gde7FH97NM0mIrihe7uONGg4adWWyTazabL9u2vUdnma9lixBihjF25Xpnb/dtlmw/GZuYjN7QZggjvfnF6XImNRF1+xvTqCb64LpPSpl6NDtILKdyneEXLOK3an6qgJXP55/qMFielVLubzQaV/ZbsLxc9LYeBMGVSqk9uhoMxRbLsiiVlKAPhV51XhZzRxany3+jPPf65Zq/nzFWS3CqDdxx3xL19oNjE5NxiTskUspDOsktzmbLsn6c9lppIWAajE1Mjm867r9G+OBcWq75e1pzs6nXLYUQ2/U0Rfz6nFIPBEEwUuuW7IvRpall1yfKc29KmuhjWdbXbNs+ozNhKd6PAk8QBNdLKZ8Ow3BgShFGb/iNRuNvGWMH18jG/RLO+b22bb9lWVbqD0pYH9FINBodXtg39bQs5v5Oee6VyzX/ICForRQNHo5sOu7PWE4lVYEHKeXvpZTXRC+cccfpSkDrWtQAAdNgrFT+HrEG6E0X9k3Npr2eLqt2hjCaPdtsNkemks9lTKPLF9Mk+hQKhRMdjCzdIAh2DnJ2chiGC0EQPCGl/J/Ef7KrUCh8v8u3BT0SetXzF/ZNPaE89xrdDLoTJe64Z/S+9MSklAtSSlNJvGgAcWQ99wgjYMbQzaCNdQ2Xa/6TspjLJPORWPZvSUp5XxbXGzSWU/kGYe0yUYH7aNRk2/ZLhKL2kSWl1P4gCAaiLRGFlDIaKd+lp/pNHtLF5WFIhF51QRZzU8q7uEZ5SicwknDHfdZyKhNprq+U+hVlR4AQYt1GmQiYa9h4bOZG7rjvEUZ674Se+0gW18zn8xXG2C2Gwz6RUl4jpUydpTaIxibKewyHvJm0K0OhUHiKMWY6f+SklPKrg9T4lqrZbP5SSnklY+xdw6EFIcQZIcTXe3Rr0COhV52VxdxtynOv1fuFKbZwx/X1umaiZNIwDJeDIDjAGDthOHSPEGIyyTXSQsBcw3ip/CyxA8mPMupAsp1zbqwKJKV8aJS77I+XyrHbepTnvpnkvEKIbYwxUxGEyIkgCO5c72y9bpJSzhN7qG4QQmRWQQn6S+hVP1aeO0XcB8505Z4jm477qabrpZTGWRshBDW/IFMImKvYeGzmh4S068+V5+7KIrVaCDGhs3BNAfq0nrYYSZZT2aL3ksVJlDFsWRalxN6JQWhymwUp5Vkp5ZSuShRnj94vDEMo9KpLspg7sFzzdxOehUsOjU1Mfi3pNfWAwLQ3c5cuF9pTCJgrjE1Mjot6uzJeKpM6X2RRnEAIsV0IcYpQgcVvNBrfHZUOJKvhjvu4IXP4SOhVOx5927a9i3NuGl1G3//pTs89yKSUvlLKVBxig94vDAZCiG35fP6Htm0/H/3J5/MPW5bVdwXGV3Nh39Tri9PlEnFts7DpuP9OmuzZRqPxI0OA3qDrHV+V9BpJIGCuMFYq38wYcwkFHQ5c2DeVeqSnM2JnCJ1XzgVBMIUi2MbKPh2vKQoholH9S6afuZTykVF8WWk2m68TMif39GNniX6iX4w/5Zw/qZ/jvZzzw4VC4Zn1vjeq1tzsH2Qxdxtj7Cjh8K06ezZJgQSmuy2ZZnOioPmdJOdPCgFTi36wuk6syQlZzFHn9GMJIYzVanQ25gNZXG+QEd5Wz8liLsna7j8ZfgZRkNwvpaQmPwwdKaVpxiV66RiYD/71IIRYa8r/dtu2B6qV2uJ0+Z8ZY69QjuWO+4zlVKglGL8kCIJThJe1uyzL6lnFOgTMLz6MN0RvQ4wx0/B+SXnugSyuqeffKRmZ9zebzd9kcc0BZ1oTSbSWrJs/x3k3CIKhy4bthK4kRclcTDSaGBFrBcVx3U5rYLTmZj9Xnvtd4u/crihoJr2WlNL03F3FOTflNWQGAfOLrQr/SunisFzzD4VeNXV2pJ6Kfcp0nFLqaBAEpgdmVMR+GC/X/I4Dpn4zvSHuGKUUvv9ffHAdIFSC+WaPbmcQFWK+9o0e3kcmQq8aDR52Ekeaezcem7kjyXWUUq+bko0sy+rZtOzIB8yNx2buJvRUvFhM+8K+qZ+mvZ4Q4jpdycc0xfiu/pCCL6Z2Yr9frTm/45qYnPNJwwfZeSlloiIIw0ZKuaCUil2yIIzWR1lcKcFEU5brLQqai9PlO/W2k9j1/fFS+dmxicmOZyDCMIyeu9glMM75vUKInqyhj3TAFPX25vFSmbIe+aws5l7I5JpCHKE0IJZS/mAUk0ximL5nf0hwTlPJw9P4GfyXMAxNSwOo/DNiWnOzy7KYi17sXzQcunnTcZ+ydesvhGFo+uzdLISoJDl3p0Y2YI5NTP41Y+wMYSp2fnG6nEnz0nw+/0+EfpqfSyl390Pvtz4Tl0m81Kr5HfeaFELEjlqllKZqNyNFP5Nx07LGF0EYTjoRyDRlv8dyKh0nOOl9maalkfssy+r68zeSAXNsYvKKTcf9VwjFCZaU5+7OogOJbdt3cM6N62FKqb1SytfTXm8Ixf2s/ITVlmID5igXiYgRl7W4QQiBIgYjqDU3+9lyzTe1I9zMHXfGciodl1PUBUPisuB7ssWknwOmqQB04uSbTcf97xG7UdyURWdxXV3/pGEdI3K62Wy+mvZ6QyoudTzpzyhuCvFsGIZDUf7OcirbRL39mqi32/rPW5ZTSbTmI6U8ZzikpxvJoX9c2Df1G8aYKe9iA3fcpOUUT8V9kXP+rYTnJevbgCml/DDmy0tKqUQFtvWUwCHTccs1/9EsOpBYljUuhKA03Z2XUqIu5ypEvW2axu44sNm2bVpvy6T7zHobm5gsRG/1l7VE26U3lScpLWaabcknOCcMCb1H3VTPeffYxGTH06dSytOGQ27odvJP3wZMxljcdNipMAw/7/SEujjBe4bMyMh8a85/rNPzr4ZzTumnGY2mb5JS/j6La46gJOu9pl/YoZgWHyuVv7PGdHb0u/BaglOaZn7QWHrEKc817SbYPFYqd7zNRO8Hjns5vkIIYaoGlkrfBkwp5Xkp5fWMsZUjzWXG2MlGo2HsUbka6gba5Zr/UJoGxJfocljGe1VKHQqCAEk+vWWakk/98+8H3HHjNsVvtpyK6eURoCOhV/VNbcG44yYNbKaOTg9bltW1bTp9GzCZzsoLguBvdf/HqUaj8d+CILgzDMOPOzlPNPwX9fYZQkWNBeW5Uxf2TaXee5fP52/W+y3jRjIX93c2m83U+zuHXDe2K8RO3QRBMPCl8ES9fcegVZGB4aA811TOc7uot5/v9LxBEHiMsbjluC2c8xs7PS9VXwfMS6SU56SUftIkjE3H/QoxyeewfjtKjXP+HOGwZ4MgyGR/55AbyI3d60nX73zWcNj50Kt2WtDfmFne4flgCIVedY6wFWRvwo4m78R9USdZdsVABMw0LKcyQehyETm1OF3+WerrWdYW27bfI6yRfdZoNDLZ3zkC4kZ7jYTJWXEJBB2vj/ebsYmLa0SmovJ3duHS/9mFc8IA0nW3Y5PExibKHY8GCfujETCTsJzK1dxxT5lGKMs1/zlZzN3WmptN9UFpWdZ4oVB4ifADW5JS7g7DMPX+zlEgi7koYK5a+m655hsznlejp1zXmgWITV/vd2MTk+PjpbLp+/KK/r52hFBgfdRb0IEWetWF5ZofW06RUJb0Lyil3jaU4rvBsqyuJJ8NbcC0nMoWnRFr2ki91Jrzf5TFNTnn3yFU8onslFLOZXHNUaE8d7XmzScv7Jvykp5TSvmDVUav56WUmTwP62WsVL7BtB9Sea6po/1aTAFz4EfnkJ3WnG/aV35V9FndyTl1X+C4dczxbnUw6VkfsV7jjvsTYgeShzLqQLJdCPGo6TillNtsNpER26HQq0bfs68wxq7T090ft2p+3F5dIynlklJqinO+gzH2/0TnlFJ2XMS933DHNdXsnG/V/LcTnj62RKEuYwZwUehVz3PHPWFYFruZMfbzDk/9viEZ8DpTpm4SQxkwdXECU5mmyKkL+6ZSr1vqdl0zlLq0zWazmvZ6o0q/2Mxmes4wXArDcCiKFLAvMmP3EjJjT7bmZpMm58SNXLHEAKs5EBcwuePeEHrVjgKmlPKsEGLNr0cDGCllh7dpNnRTspZT2cwdl1JZ5x3luZkkPQghSKNZpZQp1RogMZ3gZtprvKQ815Q9uyohhGmay1Q2D0aQLOYWDJmtsT1p12CapevKlOxQBcyxicmvccf9iFBZ57PF6fJ3syhOkM/nf0gYzc5LKXeiTix0i05we8WQ4BYFy5tCr9rRPuYVYhtEK6UGfjobusOwZn6VqLc72i+slPqdoepPSQiR+Xa0oQqYm477hykthpTnHsqoA8l2zrlx3ZIxdlhKOfAb4aE/rUhwMyXknEyzz9i0vy0Mw1RryjDUfmv4utPJycIwXCJ0zsl8e8lQBMyxiclxUW8/flmB6bUcadX81JV8hBBfZ4y9RdhUf7bRaHS6oA1AEj373HF/QVgSiEaXsSn+cfTbumnqDJnfsKrQq54zrHHvHpuY7LRw+suGr3dcr9ZkKAKm5bhPEWoMsuWa78pi7kDC3ol/JoTYJoQ4RRjNnms0GrclKRQPYBKNLDcd92cYY6a2Rp8pz70+9KqJi/sLIZ4yZMiellIm6iAEIyO228hYqTzZycmCIDhp2Ma0p5PzUQx8wLScytXjpTIlmeZsa85PXVlHCLFZ14g19f1bYIztDMMQafaQOcup7OCO+0dKwoTy3Ef1G34iuljBfYbDHkl6fhgNynNNiTpJakbHvaRtJhTa6MhAB0zLqWwgZsTWlOdOZdSB5CliRuz+IAiGogEx9JeNx2b+iTvuG8TDa62an6pesWVZdxsOOYduO0AQ+4xwx02S2WoakHTcdzPOwO7DHJuY3Mod99eEt5LG4nT526252dTBK5/PO4S6tAtSyj26dxtAJiynsnlsonz3eKm8n5Dcc8npxenyPSn2XF6sjcw53x93jFKK0mgARlyr5s8ZUns6LsSulPqQcx6Xu/L1LAsYDGzA3HTc/xfiEP7J1txs6mlR27ajUeURwqFHECwhS6LevpvQ+eFyZ2Uxd1PaaxcKBcc0oxKGIbZLgZGu1e3HlA/teIQZhuEnnPO4Q0ylUTsykFOyG4/NTBIr+ZzMqAPJ1xhjHxEyYs81Gg30toTULKfy95ZTeVjU2+8lCJafLE6XUyc86LR8U37A+yiHBx2ITfwR9Xano8zY7YFCCEzJjpfKRwj3/r4s5jKp5FMoFEj7O6WUB5ERC0npNfldjLGH07QoUp777dbcbNLiBBfpco/vmY6TUiaqGgQj63eGr+8mVPFZ6X8bvj66AXNsYvKKTcf9XxDmupeV58auu1Dl8/mbCfs7lxljh6SUr2dxTRgNusnzBGOsxB13h64B2+letJVOKc+9P/SqqYpyCCE2CCF+QTj0nFIKzzyQyWLOF/X2ckzs+VqHpzS1kyt0eL5YAxUwdbA0FidYrvkPhF7V9CZjJIS4kXP+ouk4pdT+ZrOZeuoXhptuY/SNsYlyabxU3kUo4UjlK8+tpqnic0k+n7+Vc/4s4c38EynlzjAMkQkOnfokJv+koxJ5UsqGEOJzxtha/S8zXcPMMmCa1jFSbemwnMqNxEo+J9L0SLxEt+uKnW/XziJYgomot58h7GVM4pQs5m7L4kTRM885P0lYq48+qJ6UUiJYQhLzMQFzs+VUNnS4BbAREzAznZLNMulnNqYL9vutmp94n5aulUkp63Vaee79Sa/z5+tZ1rjeb2mypJR6KO31YHiNTUxuFvX2mS4Ey1PKc3cvTpe/nfZElmVttm37YSHEG5RgyRg7qZRKtbcTRpppyaDTIBc3LZtpAfbMRpihVz0/NlG+a7xUfnbFOszycs0/emHf1IGk57WcynXccU8Tvon+4nT5u2n2nF2i23Wtlfp8yXkp5U1SSrQ0gjWNlcp3JNlftoZPGGNvKs89EXrVD9KeTAix2bKsuznnh6hrPUqpo81m8wdprw2ja7nmz4+XYj9etxJmLFeKnekQQmyVUn7WwfnWlOka5oV9Uy8zxl4W9fYePeQ+dWHfVKoKINxxjxCC5XlZzE2luc4ltm3vZowZE4aklAcRLIEgiymh6MOjKou5TreXrCkaUTLGDnf4z+bDMPxRVvcAo6k15y8YAmancckUDDOLc11J+pHFXFzvM5KxickNm477TxFGetEoNpPprnw+/03G2Eum6zHGnlRKYbM2dNM5nczzTqvm/yqjmZNopDsphNhN+L263LxS6nYpZer7gJFneob+e8bXS5N5/iV9myW76bjvENd93rywbyqTyjqc86OEOe83gyBAoWnoFp8x9oQs5igJZ0Z6i8iD+ncpaSHqecbYNc1mE0k+kAXTGman646m53K4A+bYxOQWSruu6Bu/OF2mHBfLsqwNhULhNUKpvYVGo4EkH8jSWT2SjP7/22n3ULIvnuethULhx3oUuS1l4sN5KeUtyIiFfhU9m0KInlyr7wKmrnbyGmHtp6Y89x+ymKrinH+Tsv9HKXVXGIZ/SHs9gEuU5x7IYv/kJbpX6//KYP9ZgzF2tNFoPI29ltBja20RWXd9FzC5475FKQumPPcHWbTr0igZgufDMPxNRtcD6ApCo2cKZIDDesq0Ok+Wa6J9VXx947GZHxOTEU6EXjWzli3E2oXbLMv6lwyvCdANnSbzfIlS6gEp5TUIljBEMtuL2TcBc+OxmW+Ol8ou4dATi9PlTPeBSSk/0H0uY0esnPOH8vn8rVleGyBjqQJd9Iwzxu62LKtvp8UALtOzbjl9EzDHS+WjxA4k9+i+apkKguAFShslXWcToF/dmbIM5TYhxLOFQuF4hvcE0Im+XTNf94CpS4fNEDJUl5TnmnrzpdJoNB4jTM9usW37Pcuysp5nB0gtCILzSqm70tZuZoztsW37TD6f//uMbg2AqtOA2bPZkHUNmJZT2bDpuP8SZd1FdyCZ6+b9hGH4mZRyJ2PsHcOhOwqFwi+EEJnWKYTRMzZRvs5yKpntE4s0m81XG43GlVLKvVJKlzH2nN7faWqFdLntnHM/n89/J8v7g5GXdbKpafCyVo3zjq1rwOSO+wyxncuJC/umft6DW2JSyiUpJaX81y4hxDM9uCUYYuOl8hHuuH8S9faMqLdTJeysFIbhvJTyBSllNQiC6SAIpoIg+G+MsSkdPMm3yDl/0bbtvVndG4y8TFtuEfyfrE60bgFz47GZ7+lEG5PTspi7pwe39GdSyrNKqecIh+7N5/N39+CWYPhFwTIKmn8U9fYbllP5nuVUTMsUHQuCwI+Cp5Ryl16zp05/PZ/P5x/M+n4AVpFJofRuWJeAaTmVDTrJxyiLdl1J6CLTxg8TzvkRTM1ChrYwxm7hjvscd9yPRL39XjcCp5Ty7SAI7pFSTlHXO/Wznvm9wGjhjmsqStPq0a10bF0C5thE+SeEvTEN5blToVftWcrwSlLKBb2eabr+ZsuyKj26LRg9O7jj/oeot89sPDbzuOVUsmoVdpGU8qyUcgdj7BRlrUcIcRwviJCSKUmno/KQlmVlmgMQp6cBc2xi8gpRb780Xiqbsl2Xl2v+nixLhiUhpTwnpbzd9EHCOT9o2/YzlmX1XeUkWHep2ttp0XO1fbxUPsgd94wedWaWvSql/CAIgtuUUtGzbtqydYMQ4iPLspIWcgeIfXZaNb+jgMk5NwXMzAZdPQ2Ym47732eM7SEc+uaFfVN9UYZOSjnHGHuRcOh9nHNkE8Ll3s4oaK4UjTrfFfX285ZTyWy012w2X2eMHSIcuq1QKGBWBZKKTfppzc1iH+bYxGT0VkHp9HF+cbrcVx1BGo3GP1MqqAghHsX+TFgp9KpLynN3Ltf8g4yx051ONxns5Y7775ZT+UZWJ2w0Gj/TjaVN07N7bNtG1StIIm4NM0nJ09gRq1Kq0+1Ua+pJwLScyuZNx/3XCPtl3leee01rbravOoLo/ZnXE9Lxt2J/JlwuCpoX9k09IYu5m2Qx91XludGf3TowpQ2i1+rR5luWU7ku9b2G4XIQBI8opUwvrdEzfkoIkVmwhuGnt07FfT6+nuC0cVOyy2EYZlYZrusBU7frmmGMGZMVlOfen0UHkuiaot5+RtTbn4p6+70s9rfp/ZkHCIdifybECr3qfOhVX5fF3COXgqjeH5l06nY8eu644/qi3s4kKajZbD5N2a8phKA0eQe4xPRZnGSEGRcwM92i0vWAOTZR/jElWOoOJKnXeiynsoU77v9a0WF+B2Ps16LefmpsYjJVUo6U8iyl3iz2Z0KnZDHny2LueuW51yjPvZdQbWo10QfHexuPzTycyT1JeRthKWJ3L7MUYeDdEfO1ZeW5SQJm3BRvpnXHuxowo+A1XipTkggWlOdSRm+m60Wj2fcYY6XLvhQFyv1jpXLqpBwp5SPU/Zm2beODBDoSetVzoVf9uSzm/pEx9hXiC9pKG8ZL5cOWU0m9vqi3Vh0xHLaZc35j2mvB8NMlIOP28X7W6QyjXv6Km+LNbP2SdTtgcseldDw4rzx3Z+hVU2dGjU2UH49bAOaO66bdBC6lnNf7M01D/Ytv+5Zl9boMFAwJWcwtyGLuHuW55Q6r8kTP+rNZBE2l1Mum6wohdqe9DoyErxm+/kmCc5o+X7NMsutOwBybmNwi6u1opHeL4dBoZLk7eqtOeb0rRL39/HipvN9w6DbuuGfS7mHT+zP3ECqkXF0oFP4N+zMhjdCrzkaBc3G6fKXy3PuIPS+3cMc9tfHYTKqm52EYLiilTKPM3UIIU/UWgB1xX1yu+UmmY/8q7otKqUwL33QlYG467j9s+uboYDMVetUPMrgetS5tZAN33CfTXlNK+VvG2E2EQ3dgfyZkoTU3uxB6VU95LqUC1UXjpfKhtNWBwjB8wXDIBiFEJuumMLy448bGhNac/2GC08aOMMMw7O8Rpqi379YJN7GWa/6jsphLneQzNjG5lbjZeqUdG4/NpA5iQRD4hLdvJoRwUYMTshJ61YXF6fIUY+wkpZwdd9yn0hQ4kFJGwdnUOH2vZVnYTgVxTC9uHyc4p2lKtn9HmBuPzfxQr7WYfnHevLBv6rG01+tgf+dfGC+VnxX1dlzGFoluBfau4bBtQogzQgg044VMtOZmz8ti7s7lmk8pZ1fmjntmbGIy8bSp3lIV97a+mXOOPZmwKsupXGVI+DmbZJeEEOJawyGZ7unPLGDqDiSPUo5VnjudxTX1/s7LM2Kproje0DOYrlom9s/cIIQgdWgBoLqwb+p1xhhlieHqTcf9xFudpJRLhH2ZmRaGh6EyYfi6adp/LaaaxkkSidaU5QjzRsLIcl5nxKaeV954bKaSxS8od9ws9me+r9dQTW/627E/E7K2OF3+KWPMuDTAGLs35dRsbFKGEOKqpOeG4cYd91sxX15Sntvp9qlL4p65s/pFLzNZBkxK8DocetUkmVBfovd3uoRDzxMyWctjpfI/pb2nIAiiNyRj02nO+WHsz4QsteZmP5fF3AHdoivOVdxxD6a4lCk7FwET1nJDzNfOJtlWaNv2NsNyXJIye7F62a3k7OJ0+edZnIg77r8SDvtQF70+TDjfo1EQTntfjUbjCcK+ny3YnwndoDz3EGGvZiVFzdn/bfg6nmn4C6Le3hW3frlc85NUtYqY9hmfTnjeNfUsYCrPfSh6E05zjrGJyYLe33m74dDPF6fLu0OvOn9h31SV8I2L3rw/spyKaZ49VhiG87p/JvZnQs+FXvX3ynOvN720JR1lSinPGZ5t9MiELxmbmNzMGHsp7pjWnP9KwtPH7bufD4Ig9Wzm5Xo5wmylPcGm4/6PCfs7I0+u7HhCLLu3OcP9mXcSDsX+zAREvf2wqLfbot7+U/SfU59PiM22bT9v2/YF27b/aNu2O8jdZkKvStkCsjvFWmZcMDZ10ocRM1YqTxqKoy8k2YsvhNhmeEFLVQxnLT1tIJ2Gnka6l3DoKZ0E8WehVz2nPHcXJf1e1NvPpE0CCoLglFLKmBGL/Zl0YxOTW/XswqUp9uiX8PDGYzOPJz2nZVlbhBDv6YStDXq6vCKEeD67O+89vfQRNxKM/rcmXbePLQkphMC0LPwZd9w9hkOSTpvGLisopbJu2n7RQARMy6ls4457yvQGu1zzn5PF3G2rTf2GXvXt5Zp/F+Fy91m0NdJYet+a6U0f+zOJ1ppdGC+VD+piGR0rFAr/ssbayh7btge2ck1rbvaz5Zof++xxx03apN20Ro9lBrhIt1WMXT5Tnmv6jFyVZVmxbcLCMDS2pkui7wOm5VQ2c8c9Q1gfWWjN+T+IO0DvWauarjleKt+Xtki7bsR7P2Hv2gYhROqp4BEQ9/Mw1RBeS1zm3q6E5+wLrTnftK9te8I+saZZmoGdzobMPW94gTofetXZJCfmnJt2ZaQuubqavg+Y3HGfMsyBRz5Rnns9pTWMLOZcxphxkVlfNzUp5X5CEtAO27ZfsiwLa0Bri3thSrofd2g/3Fu1i3U5TS9rmTzjl0ERdmC69Gjc7+wyY+z+JOfWyZJxBWsWdDnHzPVtwNQdSF4jFFX/XHc8IX+DFqfL9xAqQOwS9XaqcmLsi4D5gVLqAcKhewqFQuqp4CGWaed0goH+4G/NzS4rz73NsM1ku+VUOlpzVEqlbsMHw21sYnKcsE/+lCzmEq1fcs4nDctzmW8nuaR/A+YXzZ4pffaOhl71952cuzU3+7nes2ayXXdeSaXZbP6c2Ah4rxCCkgU8ioxFxhOIG/kPfDKW3gxuGmV2tNWLcz7QLxLQfWOl8s2mIhbKc19McYm4pRRjRao0+jdgTpQpVUP8xenyE0nO36r5r+qMS9MH8b2WU/l6kmusJKW8nzFm3KArhPjJIG9rWC+WU+m4AL8pgWUYpsiV58YtP/gJKqyYfi+7MhUGg4OQUDbfqvlvJz2/ECI2YDLGRi9gjpfKpg/Ac7KYm2rNzSaaImrNzS7LYu4RxtibhkOvyGh/5hKxSPsNQoi30l5vCJmyM5MEt9i1Zc55kiDcV0Kv+kvG2Gop9tHvzW0JTmmaws20dicMFlFvu6YRIGPsRGtuNtFzosuKxp1/QUr5uyTnphjYFPDlmk+pJWukPPeQLgwc94G7S9Tbjy9Ol/85CrRJryWlPGtZ1rOcc1O/0HI+n3+w2Ww+nfRaQ8g0dbg1wejGtC76tWEYMS1Ol6f0BvJrV/zOn+50dGlZ1mbD2m70Uphpw14YHJZTiZ6xiuGwJeW5aUqkPmxI1jOWQk1jYANma87/zyzOE3rV349NlO8bL5VNc+oHLccdv7BvijJKXJOU8gDnnJmabHPOnxRC1HTloJGnPPc8d2Lfkb5O6Ev6JVLKc0KINb9uWdZ2xljiqaN+0ZqbXWjNzb6ethi1TraIk6RjPgyBsYnJzdwxdhxZUJ47FXrVRC23dDecuLKOnwVBkGiJjqpvp2R76cK+qV9S2iONl8oPWU4lVb3MMAyXiPszx7E/80tMo8EkySix5yTs9RopQgjTvk0EzBG16bj/IGGv/MkkTaJXuNnw9aRF3MkQMDXdHsmYjpzh/syHCAlH2J/5X0wFxU2d11djyq42rcWMmthiDlLKWu9uBfqF5VRuZYyZEn2WlOf+NM11hBCm569r20kuQcBcYXG6/F3CyG+3qLdnxiYmUyWESCnnsD+zI3OGr3cc3KSU0YioEXPIViGEaRpyJNi2/RRhq03m/Qehv208NvNDYtnSg0mnYtkXz99uwwvbOaVU158/BMwVWnOzDVnMTRESPcqbjvs/THu9ZrPpEZr+Rvbatp20/NtQCL1qw/Bz2SLq7SRTqLGjIiEEZS/wUNOdIUzP3ykpZa+LS8A6EvX23vFSmbJsdPbCvqnECYx6m52pIcIjYRh2PUMbAXMVyzWfEpwesJzKjWmvJaW8kzCqjTyVz+dTX2/AmZIKHuz0hEopU6LQbiGEqTTjULMsyzEcsiSlfKRHtwN9YOOxmbsJQSxyVnnuVMrL3Wgoj3ouCALKwCM1BMxV6CLtpvnwK7jjnracSqrEEL0/k9Kvk3HOjYlJQ85UUHyv5VQ6Cm5hGP7GcMg2IUQ3aq4OhOjtnrANytfNpWEERJ9546UypXIZU557MEFxjC8RQpjKo/YkWDIEzLVFP2hDHc6LuOP+JG3/TCnlWcbYHsJew6vz+XzHo6hhIYu584Tp8o7WHJVStTU29q+0d1TXMi3L+r6p+YFS6mTv7gjWk+VUbuSO+xLh0Oiz7L7Qq6balmVZ1hZCslnPnj8EzDWEXvUD5bnXEDp3f8ty3B+nvV4QBC8rpYwNsjnnT9q2PbJBc7nmx1Zm4o5L6Xn6Z2EYLkspbzK9HAkhTliWNfCVfzoRPWecc9NG8LNSyl/26JZgnehmGL/gjnuakPy1vFzz75LFnJf2ukKIiqFQwWkpZVdaea0GATNG6FXn9Ugzlm5inHrPXrPZfJlQBzEazR4RQozkemZrzjetOd5iOZWOavHq6jSmaZ1thUIh9YvRoBBC3Kr3JsfOnkgpj0QvHb27M1gPm477v2CMUV9Gn9PLWqnYtr2Zcx47HdvL0SVDwDRr1fxfETbERh/QM5ZTuS7t9Yj9M6MPtMOjuD+zVfNnDftXN+gkgY5IKSmd3++LRl26H9/QEkJsF0JQ1st9pdSrPbglWCcbj818R9TbHxE7R0VOLU6XjU36TSzLin6P3zKMLs/3YivJSgiYBq252WW9P9O0zrWZO+4rYxOTqYKYlPJ3UsprCGt120dxf2ZrbnbelJDFHbfjOsO6YPNzhsOiX94jhULhNSHEULa5yufzFSHEGULVFj8IgqkwDDtqDwb9b2xictxyKreKevvXumQopdXd8nLNv08Wc7fp39FUhBA/ZozFtTqcl1LuDMOwp/1ZETAJogdAFnPXEzpmXJXF/kwp5XkppXEqWO/PNGWQDR3luaYOM9tFvd3x90VK+Rjx0FuEEB9FI7FOr9HPbNu+m3NOetnANpLhJOrtzZuO+2/oYgTf6uCfHr2wbyr1miX7r8xsU+Wgk+tR6B8BswPE/Zn7LadiqrlppKe6KMXEnx/B/Zm/IkxbPzU2MWlqRfUl+kVlipIdzRjbLIR4K5/Pm+pb9j3LsrbqSj5HCYdHI8o93WzSC71nOZVviHr73xhjfzRlpV4m+l3Zvzhd/ufM7sWyHjRMxS5LKX+W1fU6gYDZgQv7pl5ervmmD5XN3HFnNh6buTXNtcIwXG40GncSpoIZ5/xFy7JSFYUfJKFX/Uz3coxby4zelH/S6bmllL5S6nZiX8ctnPM3bds+k8/nvzdoa5vRm3w+n3cKhcJ/6Eo+puWEZaXUniAIXu7RLUKXWE5ls552/YWot//EHTd6AbrdEKhWWtbrlSVZzD3dmpvNZGpez3I8GneMUupJKWXiMntpIGB2qDXn/4gyAhkvlSlJJLHCMIwCwxRhKrhQKBQquoTZSJDF3GnCCHxPku4yzWbzN4yxnR00Q97OOX+uUCi8oRvc9j0hxA4hxB8558+a9lmucLTZbP6qy7cGXSTq7bKot2e44/5JT7ve1cHPf6VDer3yD5ndmxA7dDWv2BfPMAzXrU8wAmaHQq+6pDz3ekJSzhZRb7+Xtkh7EAQLSinKeuZdQoiRSgJarvnGaiPccU0NbVcVBMFZpdRdhI4yK+1ijP3Jtu03hBC39ltJPcuyNgghbrRt+7gQYqaDD8roe3Ck0WhkNu0Gvbfx2Ez0uxD93NMsGS0s1/z9spjLtO+kECJ6Nv/FcFj0Art7PZuUI2AmEHrV88ojZWLuyKhI+wuEOqrjOhllZNYzW3P+y4RR4N7orTrJ+ZvN5quMsSQ9SaOfwykhRBQ8n7dte12Tg6IPI9u29xcKhU+FENHI/N4Opt4iR4MgOICM2P6iR4sfiXq7rf98KurtVWdULKeyYbxUprx4x/FlMfeVNIXU1yKEeImQZHQyCIJ17YiDgJlQq+b/kjFmqoLCdJH2r6e9XhAE91D6dQohDvfbyKZbotE+YU058pblVCaSXCMaVUkp7yM0sF7LXsbYGdu2P42CpxDiYT367Nr0uWVZm6MXp+hatm2/JIT4fxljTyVssn0KI8v+I+rtXYyxNy7b8hE9Ux9tPDazWiLatR2+JK0UjSofXZwu35Tw38fK5/MPE/Z5LkgpKZ+3XTVQSQr9pDU3uyyLuUc2Hpthhje3K7jjnmSM/WPoVVNNJTQaje8WCoV/N+yR2y6E+Ch6W5NSmhokD7zQcx8bL/k3GPZsbeCOe6pV8/+u0z1iYRguh2HoKaVeLRQKz+jEiCS26Zq0f/4L/Z+jQPyJzj6dX9Eia+WUfzSK/s8V//2vVp5XCFFgjEV/rmKMbU0YGC/3oZTykJQSPS77zNjEZBT4XlojSSsaSR7WmeRf+vsElzqrPNcNvWrXnoF8Pv9PhPKL56WUO9dzKvYSBMyUWnN+dbxU3mv4kLqWO+5bjLGd0ago6bXCMGxIKV0hhGl6dosQ4lEp5W1JrzUoWnOzC4yx6M33U8Oa3NZNx/2HZTFH6gxzueh7HwTBt3Uj2+cTJkqsel/6z0UrA+o6OiulnJJS9nRTONCMlcrbDc/ftav8XSdZpdHP/YAs5kgdSZLSSxUvmo6LPvP6IVgyTMmmp6cFKWsD28cmyokSUFZSSv2SMUbJwL1lVPZnymLu4pQR4dAHRL39eJruMkEQnJJS/p2us9oXv8QZWlBK3RsEwfUIln3t/+70H+jZrbi6q9GL/EnluXsWp8t/0+1gmc/n/55Q+i7yrv7M6wsImBm4sG/qBUp7rvFS+eDGYzOpglgYhstBENyvlDJNY4xzzl/UqdpD78K+qZ8yxlxDVmsUKA9uOu6/1GmB9pWklJ8EQXCg0WhcqZTarxuAD3IB8mhEuT/639NsNn++3jcDRh8bkt1WzeBfnC5/V3nu1HLNP6ybDfjLNf+I8tzdi9Pl/yGLuTtDr/pya2620b1bvxgsb+acnyYsHZxtNBrf7qfi/piSzYgs5l4W9fYOvQF8TeOlcjQyuSbt9cIwrOrGvnFTMwUhxHuMsSullKZtMANPFnNV3TXGlEBwO3fcqzKYIl9qNptPM8ae1gXLXyPUYO03R6Lgv943AXShVz3PHfdOxthraxyyaued1tzscmtu1mes6nf3Dtemp2FfIYwszwVBcH2PbosMI8wMLU6XHyNkU14t6u2ZsYnJVGtgUsolPboxEkI8leZag2RxuvwQsbTddu64r6Utln+JlDJ6G75GSrlTKXWIMVbL4rxd8q5S6gEp5ZUIloNJFnOnlmv+XZctC0QjsZOL0+VM90hmRTe/f48QLJcovYHXAwJmhlpzsw3luZS1tPKm437qJtDE/ZmR3aOyP1NXHqF2K9mVpHzeWqIRp5Ty/Waz+VgQBH/HGPuKnnEwljfskcPRPQVB8A/NZvNnozDrMMwu7Jv6pfLcKxlj9zDGqspz/1YWc3dm0S0ka7Zt38E5P0LM1n222Wz+tge31TFMyWasVfNfYA7bzhi7z3Do/rGJyRfTlpaSUt4vhNhq2vQrhIg+LH83Cskci9Nlb9Nxfxtj7AHCM36fqLe3KM89FHrVTLfhBEEQfa8vTdkWGGN/r7eBXKX3z12lt4Nk3dd0Xgfp81LKc4yx2WgEnPE1oA+EXnUp9KpdTdBJw7KsQqFQ+KH+XTSJRshH+3nfb5YBE1VAvhjhLMli7v6Nx2aWxkvluCnTzZuO+68oz50KvWriIKanZu8sFApnVm5PWMXI7M/UP4MDG4/NvDteKp8kPOe7ueN+a2yifO+FfVNdKSwupWwwxl7X//lLXxNCbNAJEFv1vf73FW/im9dYp/5Mf8BEf/6PnoZurNjHCbBuLMvaXCgUHD3DQtkXHH2O3aWra/WtLAOmaZ9P300TdFNrzn9E78+MW6vczh13JvSqqRa39f7MR4UQruHhHJn9meyLKatXRb191JSIpV0RBVdRb+9RnntnmmSgTkUvPTqzEVOkMPB0Xdi3DMVEVoqe/53NZrPvZ0EyW8Ns1fzZNRJeojdgN/Sq57K61iBYUaTd9CKxfeOxmR+nvZ5S6udKKdM0cOQW27YfH7RWVEnpPn1HOtj2EY0237Ocyh1p9msCjBpdkvFuIcS/dxAsP1dK3RIEQd8HS5ZpwJybXVicLn9LJ6F8pt8aass1/xZZzFWzus4g0UXajb0Vx0tlV9TblTQf0GEYLjebzdeVUkcMh17ci0joDDAUWnOzn8ti7kD0HHawbBCN/E9uOu7/h+VURiJZCiApIcTmfD7/YKFQ+EhXIVut0tBq3pdS3qDb6Q2ETLNkW3OzH8ti7h5ZzP0PWcxtlMXc313YN/V2ltcYNKFX/YDYacQdK5VTd+8Pw/ARytQe5zwKmlnUHB0I+jnsNFX9au64p0W9PZOkrybAsLNtOxpR/klnwHbyeXIyCIKdUsoPunh7mcO2kh5YnC5XKVsLuOMeTrsvUEq5JKXcSakdKYR4Js21Bo0s5l5WnjuVYI9kmTvumY3HZioInDDqhBDb8vn847Ztf0Tc1na5E41GY7oLt9Z1CJg9oPdFTRESn67edNz/ftrrSSnnpZSHCIfutm2bumdxKIRe1Vee+4+6nF0nNo+Xyi533E9Fvf28qLdHooUawCVCiKtt235NCPEp5/zgZa3FKJYYY/cEQXDPoPZWRcDsEV0gnFKk/SHLqaSu/6qUepUx9g7h0Eo+n78j7fUGSehVF2QxN7Vc8x8gNKBezV7G2B9Fvf2G5VRutZwKgicMHcuyNui+qhXbtn8thPgPQtnJtZyTUpaDIOjbPaMUmWcB6g+P6M1jQ6vmn9Xtl0AXad94bOaG8VI5bi2twB33vbGJ8i0X9k1d3tOOLAzDZd0/8y3GWGzHf875c5ZlnQ3D8OOk1xtEF/ZN/cxyKu9wx93PGLurwwICGxhjt3DHvYV9MZ3+4XLNP9Wa82uMsQ9Cr4otIjAwotEjY+zrjLFrdWGNay99jqc8dU1KeVQp9XIYhj3bqtUtmQZMUW/f8aUWMs7F/7tXFnMvZHmdQdaa8380XirfbuqnOF4qH12lCWxHwjCcD4Lgetu2/2hYkL+iUCgcDoJgJPZnrhR61Y9Dr3q/5VRe4I47k+ID4trxUjn6c/G/cMd9nzH2dvT7IIu5kdpSBf3Ntu2ybhJwHWOsbHqhTigKjk9IKQ/rfcZDIbOAaTmVrzHGnlvlSydEvb1rcbp8T2tudmi+cUnpqj47ueP+2lCZZ9vGYzMPXtg39XTaayql9nPO43rhMb0/s9JoNB7rp3Y6vRJ61SjAlbjj3qunXNNOs+7Qfyqi3l5ZmGB+ueYvtOb8Bf2h4ode9XcZ/c+AwbTDtu1Pu3yNDR1msaZxSjd9HqgMWIrMAiZ33EMxU1p7xkrlF1tzs6lGTMNCF3HYrUcha/4MxkvlJ0W9zWQxlypoNpvNl/P5/A2c87h6jhe3tgghxpvNZt/Wcuym0Kv+PvSqB8YmJqtjpfKt3HH36jfwtDbo6a2LSRLRKPTSSJR98btzfrnmP5BmCh4G2oYBbAt3uc+UUk+GYfjCMNerzjLpJ260xHSRadBCrzrHGHvRcFgUxI5ksZUhDMMfUdpecc5vSXutQdeam10IveoLspibIpbVS2tb9HLUg+sAZC36TDkgpfybZrP59DAHS5ZxwOz1dOvAT+/q/ZmU5JBvpL2W3p9JKdWHcnArRKN75blfUd7F0eb7XbxUpyn6AOvlc8bYCSnlnkaj8TdBEBwZpnXKOJkFzOWav2qX7xWMG+lXUp4blyix1Kr5H3Zyvn7Umps9rzz3GsbYu724npTyvJTy9riRplKKshVlpIRe9dKIc6cOnncxxp7t9JmGgRG7R3C55icZRQ3ys7Kkm44fklLubDQa/y0IgnuklC+HYdhY75vrpcwC5oV9U15MNZuzoVfttCFoXCLEqdbc7EBufL2cLtL+I8NhmZUX1AvxU2veTxgiozmGDp6/lMXc/bKY+xvG2J0ZNYge6qmsQRJ61UZcYYvWnN9p0QvWq5fijEXP9Z1BEGzUTccfk1K+PwzbQ5LKtHDB4vTF7RJHVnQtib6xzynPvanTc7Vq/rt6/WjlSDM675HF6fKB7O56/ekMzb2Mscvf1j5TnrszTb/M1QRBcFYpdftl3WVqUspdaDTcGVnMnZTF3PXKc7+qPHcPY+wwY+zNVX6WJhjZ9xHluXde9tlzybutmt/xC2yj0Xi0y1P6STV0YDyllHpSSrlXSnmDlPKrQRBcHwSBKbt+pOTW+wbgv1hOZRt33Kf0loYF5bn3h151pPqIDhNRb2/TWbaTeovJWuuU53UjcRQ76CP69/H5FZnSJ5TnHkjzAmvb9h2MMUobvm6IXgD+89IWp+jleNiTdLKGgAnQI2MTk1eMlcoFnTF+aQvW56FX7bQYPPSQ5VS2tGr+EqqWAQAAABCg+DoAAAABAiYAAAABAiYAAAABAiYAAAABAiYAAAABAiYAAAABAiYAAAABAiYAAAABAiYAAAABAiYAAAABAiYAAAABAiYAAAABAiYAAAABAiYAAAABAiYAAAABAiYAAAABAiYAAAABAiYAAAABAiYAAAABAiYAAAABAiYAAAABAiYAAAABAiYAAAABAiYAAAABAiYAAAABAiYAAAABAiYAAAABAiYAAAABAiYAAAABAiYAAAABAiYAAAABAiYAAAABAiYAAAABAiYAAAABAiYAAAABAiYAAAABAiYAAAABAiYAAAABAiYAAAABAiYAAAABAiYAAAABAiYAAAABAiYAAAABAiYAAAABAiYAAAABAiYAAAABAiYAAAABAiYAAAABAiYAAAABAiYAAAABAiYAAAABAiYAAAABAiYAAAABAiYAAAABAiYAAAABAiYAAAABAiYAAAABAiYAAAABAiYAAAABAiYAAAABAiYAAAABAiYAAAABAiYAAAABAiYAAAABAiYAAAABAiYAAAABAiYAAAABAiYAAAABAiYAAAABAiYAAAABAiYAAAABAiYAAAABAiYAAAABAiYAAAABAiYAAAABAiYAAAABAiYAAAABAiYAAAABAiYAAAABAiYAAAABAiYAAAABAiYAAAABAiYAAAABAiYAAAABAiYAAAABAiYAAAABAiYAAAABAiYAAAABAiYAAAABAiYAAAABAiYAAAABAiYAAAABAiYAAAABAiYAAAABAiYAAAABAiYAAAABAiYAAAABAiYAAAABAiYAAAABAiYAAAABAiYAAAABAiYAAAABAiYAAAABAiYAAAABAiYAAAABAiYAAAABAiYAAAABAiYAAAABAiYAAAABAiYAAAABAiYAAAABAiYAAAABAiYAAAABAiYAAAABAiYAAAABAiYAAAABAiYAAAABAiYAAAABAiYAAAABAiYAAAABAiYAAAABAiYAAAABAiYAAAABAiYAAAABAiYAAAABAiYAAAABAiYAAAABAiYAAAABAiYAAAABAiYAAAABAiYAAAABAiYAAAABAiYAAAABAiYAAAABAiYAAAABAiYAAAABAiYAAAABAiYAAAABAiYAAAABAiYAAAABAiYAAAABAiYAAAABAiYAAAABAiYAAAABAiYAAAABAiYAAAABAiYAAAABAiYAAADB/x8AAP//9le77vm2KxIAAAAASUVORK5CYII=;imageBorder=none;" parent="1" vertex="1">
                    <mxGeometry x="340" y="230" width="70" height="70" as="geometry"/>
                </mxCell>
                <mxCell id="16" value="&lt;span style=&quot;font-size: 15px;&quot;&gt;TraceTest&lt;br&gt;&lt;/span&gt;" style="sketch=0;html=1;dashed=0;whitespace=wrap;fillColor=#2875E2;strokeColor=#ffffff;points=[[0.005,0.63,0],[0.1,0.2,0],[0.9,0.2,0],[0.5,0,0],[0.995,0.63,0],[0.72,0.99,0],[0.5,1,0],[0.28,0.99,0]];verticalLabelPosition=bottom;align=center;verticalAlign=top;shape=mxgraph.kubernetes.icon;prIcon=pod;fontFamily=Titillium Web;fontSource=https%3A%2F%2Ffonts.googleapis.com%2Fcss%3Ffamily%3DTitillium%2BWeb;fontColor=#FFFFFF;" parent="1" vertex="1">
                    <mxGeometry x="200" y="220" width="80" height="70" as="geometry"/>
                </mxCell>
                <mxCell id="17" value="&lt;span style=&quot;font-size: 15px;&quot;&gt;Postgres&lt;br&gt;&lt;/span&gt;" style="sketch=0;html=1;dashed=0;whitespace=wrap;fillColor=#2875E2;strokeColor=#ffffff;points=[[0.005,0.63,0],[0.1,0.2,0],[0.9,0.2,0],[0.5,0,0],[0.995,0.63,0],[0.72,0.99,0],[0.5,1,0],[0.28,0.99,0]];verticalLabelPosition=bottom;align=center;verticalAlign=top;shape=mxgraph.kubernetes.icon;prIcon=pod;fontFamily=Titillium Web;fontSource=https%3A%2F%2Ffonts.googleapis.com%2Fcss%3Ffamily%3DTitillium%2BWeb;fontColor=#FFFFFF;" parent="1" vertex="1">
                    <mxGeometry x="330" y="340" width="80" height="70" as="geometry"/>
                </mxCell>
                <mxCell id="18" value="&lt;span style=&quot;font-size: 15px;&quot;&gt;Order Service&lt;br&gt;&lt;/span&gt;" style="sketch=0;html=1;dashed=0;whitespace=wrap;fillColor=#2875E2;strokeColor=#ffffff;points=[[0.005,0.63,0],[0.1,0.2,0],[0.9,0.2,0],[0.5,0,0],[0.995,0.63,0],[0.72,0.99,0],[0.5,1,0],[0.28,0.99,0]];verticalLabelPosition=bottom;align=center;verticalAlign=top;shape=mxgraph.kubernetes.icon;prIcon=pod;fontFamily=Titillium Web;fontSource=https%3A%2F%2Ffonts.googleapis.com%2Fcss%3Ffamily%3DTitillium%2BWeb;fontColor=#FFFFFF;" parent="1" vertex="1">
                    <mxGeometry x="460" y="220" width="80" height="70" as="geometry"/>
                </mxCell>
                <mxCell id="19" value="&lt;span style=&quot;font-size: 15px;&quot;&gt;Warehouse Service&lt;br&gt;&lt;/span&gt;" style="sketch=0;html=1;dashed=0;whitespace=wrap;fillColor=#2875E2;strokeColor=#ffffff;points=[[0.005,0.63,0],[0.1,0.2,0],[0.9,0.2,0],[0.5,0,0],[0.995,0.63,0],[0.72,0.99,0],[0.5,1,0],[0.28,0.99,0]];verticalLabelPosition=bottom;align=center;verticalAlign=top;shape=mxgraph.kubernetes.icon;prIcon=pod;fontFamily=Titillium Web;fontSource=https%3A%2F%2Ffonts.googleapis.com%2Fcss%3Ffamily%3DTitillium%2BWeb;fontColor=#FFFFFF;" parent="1" vertex="1">
                    <mxGeometry x="460" y="340" width="80" height="70" as="geometry"/>
                </mxCell>
                <mxCell id="20" value="&lt;span style=&quot;font-size: 15px;&quot;&gt;Kafka&lt;br&gt;&lt;/span&gt;" style="sketch=0;html=1;dashed=0;whitespace=wrap;fillColor=#2875E2;strokeColor=#ffffff;points=[[0.005,0.63,0],[0.1,0.2,0],[0.9,0.2,0],[0.5,0,0],[0.995,0.63,0],[0.72,0.99,0],[0.5,1,0],[0.28,0.99,0]];verticalLabelPosition=bottom;align=center;verticalAlign=top;shape=mxgraph.kubernetes.icon;prIcon=pod;fontFamily=Titillium Web;fontSource=https%3A%2F%2Ffonts.googleapis.com%2Fcss%3Ffamily%3DTitillium%2BWeb;fontColor=#FFFFFF;" parent="1" vertex="1">
                    <mxGeometry x="200" y="340" width="80" height="70" as="geometry"/>
                </mxCell>
            </root>
        </mxGraphModel>
    </diagram>
</mxfile>